<mxfile host="drawio-plugin" modified="2022-07-24T23:23:38.992Z" agent="5.0 (Windows NT 6.2; Win64; x64) AppleWebKit/537.36 (KHTML, like Gecko) Chrome/97.0.4692.45 Safari/537.36" etag="sh41KUZF8HmxDTOqCezx" version="15.5.4" type="embed" pages="2"><diagram id="1U6RnKXcWw_qBMNXgfpt" name="Page-1"><mxGraphModel dx="1471" dy="1554" grid="0" gridSize="10" guides="1" tooltips="1" connect="1" arrows="1" fold="1" page="0" pageScale="1" pageWidth="850" pageHeight="1100" background="#F1FAEE" math="0" shadow="0"><root><mxCell id="0"/><mxCell id="1" parent="0"/><mxCell id="node7" value="&lt;p style=&quot;margin:0px;margin-top:4px;text-align:center;&quot;&gt;&lt;b&gt;AdminController&lt;/b&gt;&lt;/p&gt;&lt;hr size=&quot;1&quot;/&gt;" style="verticalAlign=top;align=left;overflow=fill;fontSize=14;fontFamily=Helvetica;html=1;rounded=0;shadow=0;comic=0;labelBackgroundColor=none;strokeWidth=1;fillColor=#A8DADC;strokeColor=#457B9D;fontColor=#1D3557;" parent="1" vertex="1"><mxGeometry x="97" y="212" width="155" height="31" as="geometry"/></mxCell><mxCell id="node17" value="&lt;p style=&quot;margin:0px;margin-top:4px;text-align:center;&quot;&gt;&lt;b&gt;AdministratorGUI&lt;/b&gt;&lt;/p&gt;&lt;hr size=&quot;1&quot;/&gt;" style="verticalAlign=top;align=left;overflow=fill;fontSize=14;fontFamily=Helvetica;html=1;rounded=0;shadow=0;comic=0;labelBackgroundColor=none;strokeWidth=1;fillColor=#A8DADC;strokeColor=#457B9D;fontColor=#1D3557;" parent="1" vertex="1"><mxGeometry x="-109" y="212" width="161" height="31" as="geometry"/></mxCell><mxCell id="node10" value="&lt;p style=&quot;margin:0px;margin-top:4px;text-align:center;&quot;&gt;&lt;b&gt;App&lt;/b&gt;&lt;/p&gt;&lt;hr size=&quot;1&quot;/&gt;" style="verticalAlign=top;align=left;overflow=fill;fontSize=14;fontFamily=Helvetica;html=1;rounded=0;shadow=0;comic=0;labelBackgroundColor=none;strokeWidth=1;fillColor=#A8DADC;strokeColor=#457B9D;fontColor=#1D3557;" parent="1" vertex="1"><mxGeometry x="22" y="508" width="78" height="31" as="geometry"/></mxCell><mxCell id="node21" value="&lt;p style=&quot;margin:0px;margin-top:4px;text-align:center;&quot;&gt;&lt;b&gt;BaseController&lt;/b&gt;&lt;/p&gt;&lt;hr size=&quot;1&quot;/&gt;" style="verticalAlign=top;align=left;overflow=fill;fontSize=14;fontFamily=Helvetica;html=1;rounded=0;shadow=0;comic=0;labelBackgroundColor=none;strokeWidth=1;fillColor=#A8DADC;strokeColor=#457B9D;fontColor=#1D3557;" parent="1" vertex="1"><mxGeometry x="-109" y="286" width="142" height="31" as="geometry"/></mxCell><mxCell id="node2" value="&lt;p style=&quot;margin:0px;margin-top:4px;text-align:center;&quot;&gt;&lt;b&gt;BaseGUI&lt;/b&gt;&lt;/p&gt;&lt;hr size=&quot;1&quot;/&gt;" style="verticalAlign=top;align=left;overflow=fill;fontSize=14;fontFamily=Helvetica;html=1;rounded=0;shadow=0;comic=0;labelBackgroundColor=none;strokeWidth=1;fillColor=#A8DADC;strokeColor=#457B9D;fontColor=#1D3557;" parent="1" vertex="1"><mxGeometry x="194" y="434" width="102" height="31" as="geometry"/></mxCell><mxCell id="node22" value="&lt;p style=&quot;margin:0px;margin-top:4px;text-align:center;&quot;&gt;&lt;b&gt;BaseProduct&lt;/b&gt;&lt;/p&gt;&lt;hr size=&quot;1&quot;/&gt;" style="verticalAlign=top;align=left;overflow=fill;fontSize=14;fontFamily=Helvetica;html=1;rounded=0;shadow=0;comic=0;labelBackgroundColor=none;strokeWidth=1;fillColor=#A8DADC;strokeColor=#457B9D;fontColor=#1D3557;" parent="1" vertex="1"><mxGeometry x="81" y="64" width="129" height="31" as="geometry"/></mxCell><mxCell id="node0" value="&lt;p style=&quot;margin:0px;margin-top:4px;text-align:center;&quot;&gt;&lt;b&gt;Client&lt;/b&gt;&lt;/p&gt;&lt;hr size=&quot;1&quot;/&gt;" style="verticalAlign=top;align=left;overflow=fill;fontSize=14;fontFamily=Helvetica;html=1;rounded=0;shadow=0;comic=0;labelBackgroundColor=none;strokeWidth=1;fillColor=#A8DADC;strokeColor=#457B9D;fontColor=#1D3557;" parent="1" vertex="1"><mxGeometry x="-109" y="508" width="86" height="31" as="geometry"/></mxCell><mxCell id="node11" value="&lt;p style=&quot;margin:0px;margin-top:4px;text-align:center;&quot;&gt;&lt;b&gt;ClientController&lt;/b&gt;&lt;/p&gt;&lt;hr size=&quot;1&quot;/&gt;" style="verticalAlign=top;align=left;overflow=fill;fontSize=14;fontFamily=Helvetica;html=1;rounded=0;shadow=0;comic=0;labelBackgroundColor=none;strokeWidth=1;fillColor=#A8DADC;strokeColor=#457B9D;fontColor=#1D3557;" parent="1" vertex="1"><mxGeometry x="297" y="212" width="148" height="31" as="geometry"/></mxCell><mxCell id="node15" value="&lt;p style=&quot;margin:0px;margin-top:4px;text-align:center;&quot;&gt;&lt;b&gt;ClientGUI&lt;/b&gt;&lt;/p&gt;&lt;hr size=&quot;1&quot;/&gt;" style="verticalAlign=top;align=left;overflow=fill;fontSize=14;fontFamily=Helvetica;html=1;rounded=0;shadow=0;comic=0;labelBackgroundColor=none;strokeWidth=1;fillColor=#A8DADC;strokeColor=#457B9D;fontColor=#1D3557;" parent="1" vertex="1"><mxGeometry x="-109" y="434" width="109" height="31" as="geometry"/></mxCell><mxCell id="node18" value="&lt;p style=&quot;margin:0px;margin-top:4px;text-align:center;&quot;&gt;&lt;b&gt;CompGUI&lt;/b&gt;&lt;/p&gt;&lt;hr size=&quot;1&quot;/&gt;" style="verticalAlign=top;align=left;overflow=fill;fontSize=14;fontFamily=Helvetica;html=1;rounded=0;shadow=0;comic=0;labelBackgroundColor=none;strokeWidth=1;fillColor=#A8DADC;strokeColor=#457B9D;fontColor=#1D3557;" parent="1" vertex="1"><mxGeometry x="211" y="360" width="113" height="31" as="geometry"/></mxCell><mxCell id="node8" value="&lt;p style=&quot;margin:0px;margin-top:4px;text-align:center;&quot;&gt;&lt;b&gt;CompositeController&lt;/b&gt;&lt;/p&gt;&lt;hr size=&quot;1&quot;/&gt;" style="verticalAlign=top;align=left;overflow=fill;fontSize=14;fontFamily=Helvetica;html=1;rounded=0;shadow=0;comic=0;labelBackgroundColor=none;strokeWidth=1;fillColor=#A8DADC;strokeColor=#457B9D;fontColor=#1D3557;" parent="1" vertex="1"><mxGeometry x="148" y="138" width="182" height="31" as="geometry"/></mxCell><mxCell id="node20" value="&lt;p style=&quot;margin:0px;margin-top:4px;text-align:center;&quot;&gt;&lt;b&gt;CompositeProduct&lt;/b&gt;&lt;/p&gt;&lt;hr size=&quot;1&quot;/&gt;" style="verticalAlign=top;align=left;overflow=fill;fontSize=14;fontFamily=Helvetica;html=1;rounded=0;shadow=0;comic=0;labelBackgroundColor=none;strokeWidth=1;fillColor=#A8DADC;strokeColor=#457B9D;fontColor=#1D3557;" parent="1" vertex="1"><mxGeometry x="-109" y="64" width="170" height="31" as="geometry"/></mxCell><mxCell id="node3" value="&lt;p style=&quot;margin:0px;margin-top:4px;text-align:center;&quot;&gt;&lt;b&gt;Controller&lt;/b&gt;&lt;/p&gt;&lt;hr size=&quot;1&quot;/&gt;" style="verticalAlign=top;align=left;overflow=fill;fontSize=14;fontFamily=Helvetica;html=1;rounded=0;shadow=0;comic=0;labelBackgroundColor=none;strokeWidth=1;fillColor=#A8DADC;strokeColor=#457B9D;fontColor=#1D3557;" parent="1" vertex="1"><mxGeometry x="53" y="360" width="113" height="31" as="geometry"/></mxCell><mxCell id="node5" value="&lt;p style=&quot;margin:0px;margin-top:4px;text-align:center;&quot;&gt;&lt;b&gt;DeliveryService&lt;/b&gt;&lt;/p&gt;&lt;hr size=&quot;1&quot;/&gt;" style="verticalAlign=top;align=left;overflow=fill;fontSize=14;fontFamily=Helvetica;html=1;rounded=0;shadow=0;comic=0;labelBackgroundColor=none;strokeWidth=1;fillColor=#A8DADC;strokeColor=#457B9D;fontColor=#1D3557;" parent="1" vertex="1"><mxGeometry x="291" y="64" width="145" height="31" as="geometry"/></mxCell><mxCell id="node9" value="&lt;p style=&quot;margin:0px;margin-top:4px;text-align:center;&quot;&gt;&lt;b&gt;EmployeeGUI&lt;/b&gt;&lt;/p&gt;&lt;hr size=&quot;1&quot;/&gt;" style="verticalAlign=top;align=left;overflow=fill;fontSize=14;fontFamily=Helvetica;html=1;rounded=0;shadow=0;comic=0;labelBackgroundColor=none;strokeWidth=1;fillColor=#A8DADC;strokeColor=#457B9D;fontColor=#1D3557;" parent="1" vertex="1"><mxGeometry x="78" y="286" width="136" height="31" as="geometry"/></mxCell><mxCell id="node1" value="&lt;p style=&quot;margin:0px;margin-top:4px;text-align:center;&quot;&gt;&lt;b&gt;FileWriter&lt;/b&gt;&lt;/p&gt;&lt;hr size=&quot;1&quot;/&gt;" style="verticalAlign=top;align=left;overflow=fill;fontSize=14;fontFamily=Helvetica;html=1;rounded=0;shadow=0;comic=0;labelBackgroundColor=none;strokeWidth=1;fillColor=#A8DADC;strokeColor=#457B9D;fontColor=#1D3557;" parent="1" vertex="1"><mxGeometry x="369" y="360" width="110" height="31" as="geometry"/></mxCell><mxCell id="node6" value="&lt;p style=&quot;margin:0px;margin-top:4px;text-align:center;&quot;&gt;&lt;b&gt;GenerateReportController&lt;/b&gt;&lt;/p&gt;&lt;hr size=&quot;1&quot;/&gt;" style="verticalAlign=top;align=left;overflow=fill;fontSize=14;fontFamily=Helvetica;html=1;rounded=0;shadow=0;comic=0;labelBackgroundColor=none;strokeWidth=1;fillColor=#A8DADC;strokeColor=#457B9D;fontColor=#1D3557;" parent="1" vertex="1"><mxGeometry x="-109" y="138" width="212" height="31" as="geometry"/></mxCell><mxCell id="node12" value="&lt;p style=&quot;margin:0px;margin-top:4px;text-align:center;&quot;&gt;&lt;i&gt;&amp;lt;&amp;lt;interface&amp;gt;&amp;gt;&lt;/i&gt;&lt;br/&gt;&lt;b&gt;IDeliveryServiceProcessing&lt;/b&gt;&lt;/p&gt;&lt;hr size=&quot;1&quot;/&gt;" style="verticalAlign=top;align=left;overflow=fill;fontSize=14;fontFamily=Helvetica;html=1;rounded=0;shadow=0;comic=0;labelBackgroundColor=none;strokeWidth=1;fillColor=#A8DADC;strokeColor=#457B9D;fontColor=#1D3557;" parent="1" vertex="1"><mxGeometry x="255" y="-15" width="217" height="36" as="geometry"/></mxCell><mxCell id="node16" value="&lt;p style=&quot;margin:0px;margin-top:4px;text-align:center;&quot;&gt;&lt;b&gt;LogView&lt;/b&gt;&lt;/p&gt;&lt;hr size=&quot;1&quot;/&gt;" style="verticalAlign=top;align=left;overflow=fill;fontSize=14;fontFamily=Helvetica;html=1;rounded=0;shadow=0;comic=0;labelBackgroundColor=none;strokeWidth=1;fillColor=#A8DADC;strokeColor=#457B9D;fontColor=#1D3557;" parent="1" vertex="1"><mxGeometry x="45" y="434" width="104" height="31" as="geometry"/></mxCell><mxCell id="node19" value="&lt;p style=&quot;margin:0px;margin-top:4px;text-align:center;&quot;&gt;&lt;b&gt;MenuItem&lt;/b&gt;&lt;/p&gt;&lt;hr size=&quot;1&quot;/&gt;" style="verticalAlign=top;align=left;overflow=fill;fontSize=14;fontFamily=Helvetica;html=1;rounded=0;shadow=0;comic=0;labelBackgroundColor=none;strokeWidth=1;fillColor=#A8DADC;strokeColor=#457B9D;fontColor=#1D3557;" parent="1" vertex="1"><mxGeometry x="3" y="-15" width="115" height="31" as="geometry"/></mxCell><mxCell id="node14" value="&lt;p style=&quot;margin:0px;margin-top:4px;text-align:center;&quot;&gt;&lt;b&gt;Order&lt;/b&gt;&lt;/p&gt;&lt;hr size=&quot;1&quot;/&gt;" style="verticalAlign=top;align=left;overflow=fill;fontSize=14;fontFamily=Helvetica;html=1;rounded=0;shadow=0;comic=0;labelBackgroundColor=none;strokeWidth=1;fillColor=#A8DADC;strokeColor=#457B9D;fontColor=#1D3557;" parent="1" vertex="1"><mxGeometry x="341" y="434" width="87" height="31" as="geometry"/></mxCell><mxCell id="node13" value="&lt;p style=&quot;margin:0px;margin-top:4px;text-align:center;&quot;&gt;&lt;b&gt;ReportGUI&lt;/b&gt;&lt;/p&gt;&lt;hr size=&quot;1&quot;/&gt;" style="verticalAlign=top;align=left;overflow=fill;fontSize=14;fontFamily=Helvetica;html=1;rounded=0;shadow=0;comic=0;labelBackgroundColor=none;strokeWidth=1;fillColor=#A8DADC;strokeColor=#457B9D;fontColor=#1D3557;" parent="1" vertex="1"><mxGeometry x="-109" y="360" width="117" height="31" as="geometry"/></mxCell><mxCell id="node4" value="&lt;p style=&quot;margin:0px;margin-top:4px;text-align:center;&quot;&gt;&lt;b&gt;Serializator&lt;/b&gt;&lt;/p&gt;&lt;hr size=&quot;1&quot;/&gt;" style="verticalAlign=top;align=left;overflow=fill;fontSize=14;fontFamily=Helvetica;html=1;rounded=0;shadow=0;comic=0;labelBackgroundColor=none;strokeWidth=1;fillColor=#A8DADC;strokeColor=#457B9D;fontColor=#1D3557;" parent="1" vertex="1"><mxGeometry x="259" y="286" width="119" height="31" as="geometry"/></mxCell><mxCell id="edge21" value="" style="html=1;rounded=1;edgeStyle=orthogonalEdgeStyle;dashed=1;startArrow=none;endArrow=openThin;endSize=12;strokeColor=#457B9D;exitX=0.000;exitY=0.293;exitDx=0;exitDy=0;entryX=1.000;entryY=0.293;entryDx=0;entryDy=0;labelBackgroundColor=#F1FAEE;fontColor=#1D3557;" parent="1" source="node7" target="node17" edge="1"><mxGeometry width="50" height="50" relative="1" as="geometry"><Array as="points"/></mxGeometry></mxCell><mxCell id="label128" value="«create»" style="edgeLabel;resizable=0;html=1;align=left;verticalAlign=top;strokeColor=#457B9D;labelBackgroundColor=#F1FAEE;fontColor=#1D3557;" parent="edge21" vertex="1" connectable="0"><mxGeometry x="225" y="-302" as="geometry"/></mxCell><mxCell id="edge61" value="" style="html=1;rounded=1;edgeStyle=orthogonalEdgeStyle;dashed=0;startArrow=diamondThinstartSize=12;endArrow=openThin;endSize=12;strokeColor=#457B9D;exitX=0.500;exitY=0.001;exitDx=0;exitDy=0;entryX=0.000;entryY=0.500;entryDx=0;entryDy=0;labelBackgroundColor=#F1FAEE;fontColor=#1D3557;" parent="1" source="node7" target="node17" edge="1"><mxGeometry width="50" height="50" relative="1" as="geometry"><Array as="points"><mxPoint x="175" y="202"/><mxPoint x="-132" y="202"/><mxPoint x="-132" y="227"/></Array></mxGeometry></mxCell><mxCell id="label366" value="1" style="edgeLabel;resizable=0;html=1;align=left;verticalAlign=top;strokeColor=#457B9D;labelBackgroundColor=#F1FAEE;fontColor=#1D3557;" parent="edge61" vertex="1" connectable="0"><mxGeometry x="-114" y="227" as="geometry"/></mxCell><mxCell id="label370" value="1" style="edgeLabel;resizable=0;html=1;align=left;verticalAlign=top;strokeColor=#457B9D;labelBackgroundColor=#F1FAEE;fontColor=#1D3557;" parent="edge61" vertex="1" connectable="0"><mxGeometry x="-120" y="267" as="geometry"/></mxCell><mxCell id="label371" value="adminView" style="edgeLabel;resizable=0;html=1;align=left;verticalAlign=top;strokeColor=#457B9D;labelBackgroundColor=#F1FAEE;fontColor=#1D3557;" parent="edge61" vertex="1" connectable="0"><mxGeometry x="14" y="-299" as="geometry"/></mxCell><mxCell id="edge37" value="" style="html=1;rounded=1;edgeStyle=orthogonalEdgeStyle;dashed=1;startArrow=none;endArrow=openThin;endSize=12;strokeColor=#457B9D;exitX=0.000;exitY=0.707;exitDx=0;exitDy=0;entryX=1.000;entryY=0.500;entryDx=0;entryDy=0;labelBackgroundColor=#F1FAEE;fontColor=#1D3557;" parent="1" source="node7" target="node21" edge="1"><mxGeometry width="50" height="50" relative="1" as="geometry"><Array as="points"><mxPoint x="75" y="233"/><mxPoint x="75" y="280"/><mxPoint x="59" y="280"/><mxPoint x="59" y="301"/></Array></mxGeometry></mxCell><mxCell id="label224" value="«create»" style="edgeLabel;resizable=0;html=1;align=left;verticalAlign=top;strokeColor=#457B9D;labelBackgroundColor=#F1FAEE;fontColor=#1D3557;" parent="edge37" vertex="1" connectable="0"><mxGeometry x="14" y="735" as="geometry"/></mxCell><mxCell id="edge33" value="" style="html=1;rounded=1;edgeStyle=orthogonalEdgeStyle;dashed=1;startArrow=none;endArrow=openThin;endSize=12;strokeColor=#457B9D;exitX=0.439;exitY=0.002;exitDx=0;exitDy=0;entryX=0.093;entryY=1.002;entryDx=0;entryDy=0;labelBackgroundColor=#F1FAEE;fontColor=#1D3557;" parent="1" source="node7" target="node8" edge="1"><mxGeometry width="50" height="50" relative="1" as="geometry"><Array as="points"/></mxGeometry></mxCell><mxCell id="label200" value="«create»" style="edgeLabel;resizable=0;html=1;align=left;verticalAlign=top;strokeColor=#457B9D;labelBackgroundColor=#F1FAEE;fontColor=#1D3557;" parent="edge33" vertex="1" connectable="0"><mxGeometry x="350" y="-290" as="geometry"/></mxCell><mxCell id="edge23" value="" style="html=1;rounded=1;edgeStyle=orthogonalEdgeStyle;dashed=1;startArrow=none;endArrow=openThin;endSize=12;strokeColor=#457B9D;exitX=0.500;exitY=1.001;exitDx=0;exitDy=0;entryX=0.500;entryY=1.002;entryDx=0;entryDy=0;labelBackgroundColor=#F1FAEE;fontColor=#1D3557;" parent="1" source="node7" target="node5" edge="1"><mxGeometry width="50" height="50" relative="1" as="geometry"><Array as="points"><mxPoint x="175" y="263"/><mxPoint x="463" y="263"/><mxPoint x="463" y="189"/><mxPoint x="364" y="189"/></Array></mxGeometry></mxCell><mxCell id="label140" value="«create»" style="edgeLabel;resizable=0;html=1;align=left;verticalAlign=top;strokeColor=#457B9D;labelBackgroundColor=#F1FAEE;fontColor=#1D3557;" parent="edge23" vertex="1" connectable="0"><mxGeometry x="282" y="-446" as="geometry"/></mxCell><mxCell id="edge47" value="" style="html=1;rounded=1;edgeStyle=orthogonalEdgeStyle;dashed=0;startArrow=diamondThinstartSize=12;endArrow=openThin;endSize=12;strokeColor=#457B9D;exitX=0.216;exitY=0.002;exitDx=0;exitDy=0;entryX=0.603;entryY=1.001;entryDx=0;entryDy=0;labelBackgroundColor=#F1FAEE;fontColor=#1D3557;" parent="1" source="node7" target="node5" edge="1"><mxGeometry width="50" height="50" relative="1" as="geometry"><Array as="points"><mxPoint x="131" y="115"/><mxPoint x="379" y="115"/></Array></mxGeometry></mxCell><mxCell id="label282" value="1" style="edgeLabel;resizable=0;html=1;align=left;verticalAlign=top;strokeColor=#457B9D;labelBackgroundColor=#F1FAEE;fontColor=#1D3557;" parent="edge47" vertex="1" connectable="0"><mxGeometry x="467" y="-290" as="geometry"/></mxCell><mxCell id="label286" value="1" style="edgeLabel;resizable=0;html=1;align=left;verticalAlign=top;strokeColor=#457B9D;labelBackgroundColor=#F1FAEE;fontColor=#1D3557;" parent="edge47" vertex="1" connectable="0"><mxGeometry x="412" y="-236" as="geometry"/></mxCell><mxCell id="label287" value="deliveryService" style="edgeLabel;resizable=0;html=1;align=left;verticalAlign=top;strokeColor=#457B9D;labelBackgroundColor=#F1FAEE;fontColor=#1D3557;" parent="edge47" vertex="1" connectable="0"><mxGeometry x="524" y="-287" as="geometry"/></mxCell><mxCell id="edge30" value="" style="html=1;rounded=1;edgeStyle=orthogonalEdgeStyle;dashed=1;startArrow=none;endArrow=openThin;endSize=12;strokeColor=#457B9D;exitX=0.019;exitY=0.002;exitDx=0;exitDy=0;entryX=0.986;entryY=1.002;entryDx=0;entryDy=0;labelBackgroundColor=#F1FAEE;fontColor=#1D3557;" parent="1" source="node7" target="node6" edge="1"><mxGeometry width="50" height="50" relative="1" as="geometry"><Array as="points"/></mxGeometry></mxCell><mxCell id="label182" value="«create»" style="edgeLabel;resizable=0;html=1;align=left;verticalAlign=top;strokeColor=#457B9D;labelBackgroundColor=#F1FAEE;fontColor=#1D3557;" parent="edge30" vertex="1" connectable="0"><mxGeometry x="200" y="-299" as="geometry"/></mxCell><mxCell id="edge51" value="" style="html=1;rounded=1;edgeStyle=orthogonalEdgeStyle;dashed=0;startArrow=diamondThinstartSize=12;endArrow=openThin;endSize=12;strokeColor=#457B9D;exitX=0.500;exitY=1.001;exitDx=0;exitDy=0;entryX=0.000;entryY=0.500;entryDx=0;entryDy=0;labelBackgroundColor=#F1FAEE;fontColor=#1D3557;" parent="1" source="node7" target="node16" edge="1"><mxGeometry width="50" height="50" relative="1" as="geometry"><Array as="points"><mxPoint x="175" y="288"/><mxPoint x="26" y="288"/><mxPoint x="26" y="449"/></Array></mxGeometry></mxCell><mxCell id="label306" value="1" style="edgeLabel;resizable=0;html=1;align=left;verticalAlign=top;strokeColor=#457B9D;labelBackgroundColor=#F1FAEE;fontColor=#1D3557;" parent="edge51" vertex="1" connectable="0"><mxGeometry x="138" y="878" as="geometry"/></mxCell><mxCell id="label310" value="1" style="edgeLabel;resizable=0;html=1;align=left;verticalAlign=top;strokeColor=#457B9D;labelBackgroundColor=#F1FAEE;fontColor=#1D3557;" parent="edge51" vertex="1" connectable="0"><mxGeometry x="28" y="449" as="geometry"/></mxCell><mxCell id="label311" value="logInView" style="edgeLabel;resizable=0;html=1;align=left;verticalAlign=top;strokeColor=#457B9D;labelBackgroundColor=#F1FAEE;fontColor=#1D3557;" parent="edge51" vertex="1" connectable="0"><mxGeometry x="94" y="792" as="geometry"/></mxCell><mxCell id="edge19" value="" style="html=1;rounded=1;edgeStyle=orthogonalEdgeStyle;dashed=1;startArrow=none;endArrow=openThin;endSize=12;strokeColor=#457B9D;exitX=0.500;exitY=1.001;exitDx=0;exitDy=0;entryX=0.500;entryY=1.002;entryDx=0;entryDy=0;labelBackgroundColor=#F1FAEE;fontColor=#1D3557;" parent="1" source="node17" target="node5" edge="1"><mxGeometry width="50" height="50" relative="1" as="geometry"><Array as="points"><mxPoint x="-28" y="263"/><mxPoint x="463" y="263"/><mxPoint x="463" y="189"/><mxPoint x="364" y="189"/></Array></mxGeometry></mxCell><mxCell id="label116" value="«create»" style="edgeLabel;resizable=0;html=1;align=left;verticalAlign=top;strokeColor=#457B9D;labelBackgroundColor=#F1FAEE;fontColor=#1D3557;" parent="edge19" vertex="1" connectable="0"><mxGeometry x="415" y="-294" as="geometry"/></mxCell><mxCell id="edge49" value="" style="html=1;rounded=1;edgeStyle=orthogonalEdgeStyle;dashed=0;startArrow=diamondThinstartSize=12;endArrow=openThin;endSize=12;strokeColor=#457B9D;exitX=0.500;exitY=0.002;exitDx=0;exitDy=0;entryX=0.603;entryY=1.001;entryDx=0;entryDy=0;labelBackgroundColor=#F1FAEE;fontColor=#1D3557;" parent="1" source="node17" target="node5" edge="1"><mxGeometry width="50" height="50" relative="1" as="geometry"><Array as="points"><mxPoint x="-28" y="189"/><mxPoint x="-157" y="189"/><mxPoint x="-157" y="115"/><mxPoint x="379" y="115"/></Array></mxGeometry></mxCell><mxCell id="label294" value="1" style="edgeLabel;resizable=0;html=1;align=left;verticalAlign=top;strokeColor=#457B9D;labelBackgroundColor=#F1FAEE;fontColor=#1D3557;" parent="edge49" vertex="1" connectable="0"><mxGeometry x="501" y="-252" as="geometry"/></mxCell><mxCell id="label298" value="1" style="edgeLabel;resizable=0;html=1;align=left;verticalAlign=top;strokeColor=#457B9D;labelBackgroundColor=#F1FAEE;fontColor=#1D3557;" parent="edge49" vertex="1" connectable="0"><mxGeometry x="415" y="-302" as="geometry"/></mxCell><mxCell id="label299" value="deliveryService" style="edgeLabel;resizable=0;html=1;align=left;verticalAlign=top;strokeColor=#457B9D;labelBackgroundColor=#F1FAEE;fontColor=#1D3557;" parent="edge49" vertex="1" connectable="0"><mxGeometry x="521" y="-309" as="geometry"/></mxCell><mxCell id="edge29" value="" style="html=1;rounded=1;edgeStyle=orthogonalEdgeStyle;dashed=1;startArrow=none;endArrow=openThin;endSize=12;strokeColor=#457B9D;exitX=1.000;exitY=0.500;exitDx=0;exitDy=0;entryX=1.000;entryY=0.500;entryDx=0;entryDy=0;labelBackgroundColor=#F1FAEE;fontColor=#1D3557;" parent="1" source="node10" target="node3" edge="1"><mxGeometry width="50" height="50" relative="1" as="geometry"><Array as="points"><mxPoint x="176" y="523"/><mxPoint x="176" y="375"/></Array></mxGeometry></mxCell><mxCell id="label176" value="«create»" style="edgeLabel;resizable=0;html=1;align=left;verticalAlign=top;strokeColor=#457B9D;labelBackgroundColor=#F1FAEE;fontColor=#1D3557;" parent="edge29" vertex="1" connectable="0"><mxGeometry x="166" y="807" as="geometry"/></mxCell><mxCell id="edge24" value="" style="html=1;rounded=1;edgeStyle=orthogonalEdgeStyle;dashed=0;startArrow=diamondThinstartSize=12;endArrow=openThin;endSize=12;strokeColor=#457B9D;exitX=0.394;exitY=1.001;exitDx=0;exitDy=0;entryX=0.000;entryY=0.500;entryDx=0;entryDy=0;labelBackgroundColor=#F1FAEE;fontColor=#1D3557;" parent="1" source="node21" target="node17" edge="1"><mxGeometry width="50" height="50" relative="1" as="geometry"><Array as="points"><mxPoint x="-53" y="337"/><mxPoint x="-132" y="337"/><mxPoint x="-132" y="227"/></Array></mxGeometry></mxCell><mxCell id="label144" value="1" style="edgeLabel;resizable=0;html=1;align=left;verticalAlign=top;strokeColor=#457B9D;labelBackgroundColor=#F1FAEE;fontColor=#1D3557;" parent="edge24" vertex="1" connectable="0"><mxGeometry x="66" y="-290" as="geometry"/></mxCell><mxCell id="label148" value="1" style="edgeLabel;resizable=0;html=1;align=left;verticalAlign=top;strokeColor=#457B9D;labelBackgroundColor=#F1FAEE;fontColor=#1D3557;" parent="edge24" vertex="1" connectable="0"><mxGeometry x="-125" y="211" as="geometry"/></mxCell><mxCell id="label149" value="administratorGUI" style="edgeLabel;resizable=0;html=1;align=left;verticalAlign=top;strokeColor=#457B9D;fontColor=#1D3557;labelBackgroundColor=#F1FAEE;" parent="edge24" vertex="1" connectable="0"><mxGeometry x="-325" y="992" as="geometry"/></mxCell><mxCell id="edge18" value="" style="html=1;rounded=1;edgeStyle=orthogonalEdgeStyle;dashed=1;startArrow=none;endArrow=openThin;endSize=12;strokeColor=#457B9D;exitX=0.461;exitY=0.002;exitDx=0;exitDy=0;entryX=0.407;entryY=1.001;entryDx=0;entryDy=0;labelBackgroundColor=#F1FAEE;fontColor=#1D3557;" parent="1" source="node21" target="node2" edge="1"><mxGeometry width="50" height="50" relative="1" as="geometry"><Array as="points"><mxPoint x="-43" y="263"/><mxPoint x="-226" y="263"/><mxPoint x="-226" y="603"/><mxPoint x="236" y="603"/></Array></mxGeometry></mxCell><mxCell id="label110" value="«create»" style="edgeLabel;resizable=0;html=1;align=left;verticalAlign=top;strokeColor=#457B9D;labelBackgroundColor=#F1FAEE;fontColor=#1D3557;" parent="edge18" vertex="1" connectable="0"><mxGeometry x="-309" y="986" as="geometry"/></mxCell><mxCell id="edge60" value="" style="html=1;rounded=1;edgeStyle=orthogonalEdgeStyle;dashed=0;startArrow=diamondThinstartSize=12;endArrow=openThin;endSize=12;strokeColor=#457B9D;exitX=0.000;exitY=0.172;exitDx=0;exitDy=0;entryX=0.500;entryY=1.001;entryDx=0;entryDy=0;labelBackgroundColor=#F1FAEE;fontColor=#1D3557;" parent="1" source="node21" target="node2" edge="1"><mxGeometry width="50" height="50" relative="1" as="geometry"><Array as="points"><mxPoint x="-217" y="291"/><mxPoint x="-217" y="593"/><mxPoint x="245" y="593"/></Array></mxGeometry></mxCell><mxCell id="label360" value="1" style="edgeLabel;resizable=0;html=1;align=left;verticalAlign=top;strokeColor=#457B9D;labelBackgroundColor=#F1FAEE;fontColor=#1D3557;" parent="edge60" vertex="1" connectable="0"><mxGeometry x="-268" y="943" as="geometry"/></mxCell><mxCell id="label364" value="1" style="edgeLabel;resizable=0;html=1;align=left;verticalAlign=top;strokeColor=#457B9D;labelBackgroundColor=#F1FAEE;fontColor=#1D3557;" parent="edge60" vertex="1" connectable="0"><mxGeometry x="388" y="767" as="geometry"><mxPoint x="38" y="104" as="offset"/></mxGeometry></mxCell><mxCell id="label365" value="baseView" style="edgeLabel;resizable=0;html=1;align=left;verticalAlign=top;strokeColor=#457B9D;labelBackgroundColor=#F1FAEE;fontColor=#1D3557;" parent="edge60" vertex="1" connectable="0"><mxGeometry x="187" y="881" as="geometry"/></mxCell><mxCell id="edge55" value="" style="html=1;rounded=1;edgeStyle=orthogonalEdgeStyle;dashed=1;startArrow=none;endArrow=openThin;endSize=12;strokeColor=#457B9D;exitX=0.500;exitY=1.001;exitDx=0;exitDy=0;entryX=0.500;entryY=1.002;entryDx=0;entryDy=0;labelBackgroundColor=#F1FAEE;fontColor=#1D3557;" parent="1" source="node21" target="node5" edge="1"><mxGeometry width="50" height="50" relative="1" as="geometry"><Array as="points"><mxPoint x="-38" y="337"/><mxPoint x="232" y="337"/><mxPoint x="232" y="263"/><mxPoint x="463" y="263"/><mxPoint x="463" y="189"/><mxPoint x="364" y="189"/></Array></mxGeometry></mxCell><mxCell id="label332" value="«create»" style="edgeLabel;resizable=0;html=1;align=left;verticalAlign=top;strokeColor=#457B9D;labelBackgroundColor=#F1FAEE;fontColor=#1D3557;" parent="edge55" vertex="1" connectable="0"><mxGeometry x="428" y="-293" as="geometry"/></mxCell><mxCell id="edge56" value="" style="html=1;rounded=1;edgeStyle=orthogonalEdgeStyle;dashed=0;startArrow=diamondThinstartSize=12;endArrow=openThin;endSize=12;strokeColor=#457B9D;exitX=0.000;exitY=0.500;exitDx=0;exitDy=0;entryX=0.603;entryY=1.001;entryDx=0;entryDy=0;labelBackgroundColor=#F1FAEE;fontColor=#1D3557;" parent="1" source="node21" target="node5" edge="1"><mxGeometry width="50" height="50" relative="1" as="geometry"><Array as="points"><mxPoint x="-126" y="301"/><mxPoint x="-126" y="189"/><mxPoint x="-157" y="189"/><mxPoint x="-157" y="115"/><mxPoint x="379" y="115"/></Array></mxGeometry></mxCell><mxCell id="label336" value="1" style="edgeLabel;resizable=0;html=1;align=left;verticalAlign=top;strokeColor=#457B9D;labelBackgroundColor=#F1FAEE;fontColor=#1D3557;" parent="edge56" vertex="1" connectable="0"><mxGeometry x="493" y="-228" as="geometry"/></mxCell><mxCell id="label340" value="1" style="edgeLabel;resizable=0;html=1;align=left;verticalAlign=top;strokeColor=#457B9D;labelBackgroundColor=#F1FAEE;fontColor=#1D3557;" parent="edge56" vertex="1" connectable="0"><mxGeometry x="429" y="-334" as="geometry"/></mxCell><mxCell id="label341" value="deliveryService" style="edgeLabel;resizable=0;html=1;align=left;verticalAlign=top;strokeColor=#457B9D;labelBackgroundColor=#F1FAEE;fontColor=#1D3557;" parent="edge56" vertex="1" connectable="0"><mxGeometry x="498" y="-299" as="geometry"/></mxCell><mxCell id="edge57" value="" style="html=1;rounded=1;edgeStyle=orthogonalEdgeStyle;dashed=0;startArrow=diamondThinstartSize=12;endArrow=openThin;endSize=12;strokeColor=#457B9D;exitX=0.951;exitY=1.001;exitDx=0;exitDy=0;entryX=0.000;entryY=0.500;entryDx=0;entryDy=0;labelBackgroundColor=#F1FAEE;fontColor=#1D3557;" parent="1" source="node21" target="node16" edge="1"><mxGeometry width="50" height="50" relative="1" as="geometry"><Array as="points"><mxPoint x="26" y="449"/></Array></mxGeometry></mxCell><mxCell id="label342" value="1" style="edgeLabel;resizable=0;html=1;align=left;verticalAlign=top;strokeColor=#457B9D;labelBackgroundColor=#F1FAEE;fontColor=#1D3557;" parent="edge57" vertex="1" connectable="0"><mxGeometry x="60" y="1053" as="geometry"/></mxCell><mxCell id="label346" value="1" style="edgeLabel;resizable=0;html=1;align=left;verticalAlign=top;strokeColor=#457B9D;labelBackgroundColor=#F1FAEE;fontColor=#1D3557;" parent="edge57" vertex="1" connectable="0"><mxGeometry x="53" y="1002" as="geometry"/></mxCell><mxCell id="label347" value="logInView" style="edgeLabel;resizable=0;html=1;align=left;verticalAlign=top;strokeColor=#457B9D;labelBackgroundColor=#F1FAEE;fontColor=#1D3557;" parent="edge57" vertex="1" connectable="0"><mxGeometry x="484" y="1038" as="geometry"/></mxCell><mxCell id="edge2" value="" style="html=1;rounded=1;edgeStyle=orthogonalEdgeStyle;dashed=0;startArrow=none;endArrow=block;endSize=12;strokeColor=#457B9D;exitX=0.500;exitY=0.002;exitDx=0;exitDy=0;entryX=0.500;entryY=1.002;entryDx=0;entryDy=0;labelBackgroundColor=#F1FAEE;fontColor=#1D3557;" parent="1" source="node22" target="node19" edge="1"><mxGeometry width="50" height="50" relative="1" as="geometry"><Array as="points"><mxPoint x="146" y="39"/><mxPoint x="61" y="39"/></Array></mxGeometry></mxCell><mxCell id="edge5" value="" style="html=1;rounded=1;edgeStyle=orthogonalEdgeStyle;dashed=0;startArrow=diamondThinstartSize=12;endArrow=openThin;endSize=12;strokeColor=#457B9D;exitX=0.868;exitY=0.001;exitDx=0;exitDy=0;entryX=0.500;entryY=1.001;entryDx=0;entryDy=0;labelBackgroundColor=#F1FAEE;fontColor=#1D3557;" parent="1" source="node11" target="node0" edge="1"><mxGeometry width="50" height="50" relative="1" as="geometry"><Array as="points"><mxPoint x="426" y="170"/><mxPoint x="512" y="170"/><mxPoint x="512" y="565"/><mxPoint x="-66" y="565"/></Array></mxGeometry></mxCell><mxCell id="label30" value="1" style="edgeLabel;resizable=0;html=1;align=left;verticalAlign=top;strokeColor=#457B9D;labelBackgroundColor=#F1FAEE;fontColor=#1D3557;" parent="edge5" vertex="1" connectable="0"><mxGeometry x="-264" y="961" as="geometry"/></mxCell><mxCell id="label34" value="1" style="edgeLabel;resizable=0;html=1;align=left;verticalAlign=top;strokeColor=#457B9D;labelBackgroundColor=#F1FAEE;fontColor=#1D3557;" parent="edge5" vertex="1" connectable="0"><mxGeometry x="-242" y="942" as="geometry"/></mxCell><mxCell id="label35" value="user" style="edgeLabel;resizable=0;html=1;align=left;verticalAlign=top;strokeColor=#457B9D;labelBackgroundColor=#F1FAEE;fontColor=#1D3557;" parent="edge5" vertex="1" connectable="0"><mxGeometry x="-295" y="931" as="geometry"/></mxCell><mxCell id="edge4" value="" style="html=1;rounded=1;edgeStyle=orthogonalEdgeStyle;dashed=0;startArrow=diamondThinstartSize=12;endArrow=openThin;endSize=12;strokeColor=#457B9D;exitX=1.000;exitY=0.500;exitDx=0;exitDy=0;entryX=0.500;entryY=0.002;entryDx=0;entryDy=0;labelBackgroundColor=#F1FAEE;fontColor=#1D3557;" parent="1" source="node11" target="node15" edge="1"><mxGeometry width="50" height="50" relative="1" as="geometry"><Array as="points"><mxPoint x="522" y="228"/><mxPoint x="522" y="476"/><mxPoint x="31" y="476"/><mxPoint x="31" y="450"/><mxPoint x="15" y="450"/><mxPoint x="15" y="431"/><mxPoint x="3" y="431"/><mxPoint x="3" y="411"/><mxPoint x="-54" y="411"/></Array></mxGeometry></mxCell><mxCell id="label24" value="1" style="edgeLabel;resizable=0;html=1;align=left;verticalAlign=top;strokeColor=#457B9D;labelBackgroundColor=#F1FAEE;fontColor=#1D3557;" parent="edge4" vertex="1" connectable="0"><mxGeometry x="127" y="778" as="geometry"/></mxCell><mxCell id="label28" value="1" style="edgeLabel;resizable=0;html=1;align=left;verticalAlign=top;strokeColor=#457B9D;labelBackgroundColor=#F1FAEE;fontColor=#1D3557;" parent="edge4" vertex="1" connectable="0"><mxGeometry x="-58" y="796" as="geometry"/></mxCell><mxCell id="label29" value="userView" style="edgeLabel;resizable=0;html=1;align=left;verticalAlign=top;strokeColor=#457B9D;labelBackgroundColor=#F1FAEE;fontColor=#1D3557;" parent="edge4" vertex="1" connectable="0"><mxGeometry x="160" y="863" as="geometry"/></mxCell><mxCell id="edge42" value="" style="html=1;rounded=1;edgeStyle=orthogonalEdgeStyle;dashed=1;startArrow=none;endArrow=openThin;endSize=12;strokeColor=#457B9D;exitX=1.000;exitY=0.862;exitDx=0;exitDy=0;entryX=0.908;entryY=1.001;entryDx=0;entryDy=0;labelBackgroundColor=#F1FAEE;fontColor=#1D3557;" parent="1" source="node11" target="node15" edge="1"><mxGeometry width="50" height="50" relative="1" as="geometry"><Array as="points"><mxPoint x="572" y="237"/><mxPoint x="572" y="584"/><mxPoint x="-10" y="584"/></Array></mxGeometry></mxCell><mxCell id="label254" value="«create»" style="edgeLabel;resizable=0;html=1;align=left;verticalAlign=top;strokeColor=#457B9D;labelBackgroundColor=#F1FAEE;fontColor=#1D3557;" parent="edge42" vertex="1" connectable="0"><mxGeometry y="908" as="geometry"/></mxCell><mxCell id="edge3" value="" style="html=1;rounded=1;edgeStyle=orthogonalEdgeStyle;dashed=1;startArrow=none;endArrow=openThin;endSize=12;strokeColor=#457B9D;exitX=0.500;exitY=1.001;exitDx=0;exitDy=0;entryX=0.500;entryY=1.002;entryDx=0;entryDy=0;labelBackgroundColor=#F1FAEE;fontColor=#1D3557;" parent="1" source="node11" target="node5" edge="1"><mxGeometry width="50" height="50" relative="1" as="geometry"><Array as="points"><mxPoint x="371" y="263"/><mxPoint x="463" y="263"/><mxPoint x="463" y="189"/><mxPoint x="364" y="189"/></Array></mxGeometry></mxCell><mxCell id="label20" value="«create»" style="edgeLabel;resizable=0;html=1;align=left;verticalAlign=top;strokeColor=#457B9D;labelBackgroundColor=#F1FAEE;fontColor=#1D3557;" parent="edge3" vertex="1" connectable="0"><mxGeometry x="750" y="-427" as="geometry"/></mxCell><mxCell id="edge59" value="" style="html=1;rounded=1;edgeStyle=orthogonalEdgeStyle;dashed=0;startArrow=diamondThinstartSize=12;endArrow=openThin;endSize=12;strokeColor=#457B9D;exitX=0.551;exitY=0.001;exitDx=0;exitDy=0;entryX=0.603;entryY=1.001;entryDx=0;entryDy=0;labelBackgroundColor=#F1FAEE;fontColor=#1D3557;" parent="1" source="node11" target="node5" edge="1"><mxGeometry width="50" height="50" relative="1" as="geometry"><Array as="points"/></mxGeometry></mxCell><mxCell id="label354" value="1" style="edgeLabel;resizable=0;html=1;align=left;verticalAlign=top;strokeColor=#457B9D;labelBackgroundColor=#F1FAEE;fontColor=#1D3557;" parent="edge59" vertex="1" connectable="0"><mxGeometry x="495" y="-277" as="geometry"/></mxCell><mxCell id="label358" value="1" style="edgeLabel;resizable=0;html=1;align=left;verticalAlign=top;strokeColor=#457B9D;labelBackgroundColor=#F1FAEE;fontColor=#1D3557;" parent="edge59" vertex="1" connectable="0"><mxGeometry x="452" y="-246" as="geometry"/></mxCell><mxCell id="label359" value="deliveryService" style="edgeLabel;resizable=0;html=1;align=left;verticalAlign=top;strokeColor=#457B9D;labelBackgroundColor=#F1FAEE;fontColor=#1D3557;" parent="edge59" vertex="1" connectable="0"><mxGeometry x="509" y="-259" as="geometry"/></mxCell><mxCell id="edge38" value="" style="html=1;rounded=1;edgeStyle=orthogonalEdgeStyle;dashed=0;startArrow=diamondThinstartSize=12;endArrow=openThin;endSize=12;strokeColor=#457B9D;exitX=0.767;exitY=0.001;exitDx=0;exitDy=0;entryX=0.000;entryY=0.500;entryDx=0;entryDy=0;labelBackgroundColor=#F1FAEE;fontColor=#1D3557;" parent="1" source="node11" target="node16" edge="1"><mxGeometry width="50" height="50" relative="1" as="geometry"><Array as="points"><mxPoint x="411" y="152"/><mxPoint x="454" y="152"/><mxPoint x="454" y="115"/><mxPoint x="497" y="115"/><mxPoint x="497" y="412"/><mxPoint x="26" y="412"/><mxPoint x="26" y="449"/></Array></mxGeometry></mxCell><mxCell id="label228" value="1" style="edgeLabel;resizable=0;html=1;align=left;verticalAlign=top;strokeColor=#457B9D;labelBackgroundColor=#F1FAEE;fontColor=#1D3557;" parent="edge38" vertex="1" connectable="0"><mxGeometry x="34" y="940" as="geometry"/></mxCell><mxCell id="label232" value="1" style="edgeLabel;resizable=0;html=1;align=left;verticalAlign=top;strokeColor=#457B9D;labelBackgroundColor=#F1FAEE;fontColor=#1D3557;" parent="edge38" vertex="1" connectable="0"><mxGeometry x="29" y="450" as="geometry"/></mxCell><mxCell id="label233" value="logInView" style="edgeLabel;resizable=0;html=1;align=left;verticalAlign=top;strokeColor=#457B9D;labelBackgroundColor=#F1FAEE;fontColor=#1D3557;" parent="edge38" vertex="1" connectable="0"><mxGeometry x="354" y="914" as="geometry"/></mxCell><mxCell id="edge39" value="" style="html=1;rounded=1;edgeStyle=orthogonalEdgeStyle;dashed=0;startArrow=diamondThinstartSize=12;endArrow=openThin;endSize=12;strokeColor=#457B9D;exitX=0.442;exitY=0.001;exitDx=0;exitDy=0;entryX=0.000;entryY=0.500;entryDx=0;entryDy=0;labelBackgroundColor=#F1FAEE;fontColor=#1D3557;" parent="1" source="node8" target="node17" edge="1"><mxGeometry width="50" height="50" relative="1" as="geometry"><Array as="points"><mxPoint x="229" y="-28"/><mxPoint x="-168" y="-28"/><mxPoint x="-168" y="227"/></Array></mxGeometry></mxCell><mxCell id="label234" value="1" style="edgeLabel;resizable=0;html=1;align=left;verticalAlign=top;strokeColor=#457B9D;labelBackgroundColor=#F1FAEE;fontColor=#1D3557;" parent="edge39" vertex="1" connectable="0"><mxGeometry x="-157" y="267" as="geometry"/></mxCell><mxCell id="label238" value="1" style="edgeLabel;resizable=0;html=1;align=left;verticalAlign=top;strokeColor=#457B9D;labelBackgroundColor=#F1FAEE;fontColor=#1D3557;" parent="edge39" vertex="1" connectable="0"><mxGeometry x="-121" y="228" as="geometry"/></mxCell><mxCell id="label239" value="administratorGUI" style="edgeLabel;resizable=0;html=1;align=left;verticalAlign=top;strokeColor=#457B9D;labelBackgroundColor=#F1FAEE;fontColor=#1D3557;" parent="edge39" vertex="1" connectable="0"><mxGeometry x="-42" y="-422" as="geometry"/></mxCell><mxCell id="edge27" value="" style="html=1;rounded=1;edgeStyle=orthogonalEdgeStyle;dashed=0;startArrow=diamondThinstartSize=12;endArrow=openThin;endSize=12;strokeColor=#457B9D;exitX=0.657;exitY=1.002;exitDx=0;exitDy=0;entryX=0.500;entryY=0.002;entryDx=0;entryDy=0;labelBackgroundColor=#F1FAEE;fontColor=#1D3557;" parent="1" source="node8" target="node18" edge="1"><mxGeometry width="50" height="50" relative="1" as="geometry"><Array as="points"/></mxGeometry></mxCell><mxCell id="label162" value="1" style="edgeLabel;resizable=0;html=1;align=left;verticalAlign=top;strokeColor=#457B9D;labelBackgroundColor=#F1FAEE;fontColor=#1D3557;" parent="edge27" vertex="1" connectable="0"><mxGeometry x="217" y="172" as="geometry"><mxPoint x="145" y="-428" as="offset"/></mxGeometry></mxCell><mxCell id="label166" value="1" style="edgeLabel;resizable=0;html=1;align=left;verticalAlign=top;strokeColor=#457B9D;labelBackgroundColor=#F1FAEE;fontColor=#1D3557;" parent="edge27" vertex="1" connectable="0"><mxGeometry x="255" y="332" as="geometry"/></mxCell><mxCell id="label167" value="compositeView" style="edgeLabel;resizable=0;html=1;align=left;verticalAlign=top;strokeColor=#457B9D;labelBackgroundColor=#F1FAEE;fontColor=#1D3557;" parent="edge27" vertex="1" connectable="0"><mxGeometry x="302" y="1151" as="geometry"/></mxCell><mxCell id="edge32" value="" style="html=1;rounded=1;edgeStyle=orthogonalEdgeStyle;dashed=1;startArrow=none;endArrow=openThin;endSize=12;strokeColor=#457B9D;exitX=0.637;exitY=1.001;exitDx=0;exitDy=0;entryX=0.407;entryY=0.001;entryDx=0;entryDy=0;labelBackgroundColor=#F1FAEE;fontColor=#1D3557;" parent="1" source="node8" target="node18" edge="1"><mxGeometry width="50" height="50" relative="1" as="geometry"><Array as="points"><mxPoint x="264" y="274"/><mxPoint x="257" y="274"/></Array></mxGeometry></mxCell><mxCell id="label194" value="«create»" style="edgeLabel;resizable=0;html=1;align=left;verticalAlign=top;strokeColor=#457B9D;labelBackgroundColor=#F1FAEE;fontColor=#1D3557;" parent="edge32" vertex="1" connectable="0"><mxGeometry x="267.5" y="1061" as="geometry"/></mxCell><mxCell id="edge54" value="" style="html=1;rounded=1;edgeStyle=orthogonalEdgeStyle;dashed=1;startArrow=none;endArrow=openThin;endSize=12;strokeColor=#457B9D;exitX=0.558;exitY=0.001;exitDx=0;exitDy=0;entryX=0.000;entryY=0.500;entryDx=0;entryDy=0;labelBackgroundColor=#F1FAEE;fontColor=#1D3557;" parent="1" source="node8" target="node20" edge="1"><mxGeometry width="50" height="50" relative="1" as="geometry"><Array as="points"><mxPoint x="250" y="29"/><mxPoint x="-70" y="29"/><mxPoint x="-70" y="33"/><mxPoint x="-132" y="33"/><mxPoint x="-132" y="79"/></Array></mxGeometry></mxCell><mxCell id="label326" value="«create»" style="edgeLabel;resizable=0;html=1;align=left;verticalAlign=top;strokeColor=#457B9D;labelBackgroundColor=#F1FAEE;fontColor=#1D3557;" parent="edge54" vertex="1" connectable="0"><mxGeometry x="-110" y="-379" as="geometry"/></mxCell><mxCell id="edge9" value="" style="html=1;rounded=1;edgeStyle=orthogonalEdgeStyle;dashed=0;startArrow=diamondThinstartSize=12;endArrow=openThin;endSize=12;strokeColor=#457B9D;exitX=0.500;exitY=0.002;exitDx=0;exitDy=0;entryX=0.603;entryY=1.001;entryDx=0;entryDy=0;labelBackgroundColor=#F1FAEE;fontColor=#1D3557;" parent="1" source="node8" target="node5" edge="1"><mxGeometry width="50" height="50" relative="1" as="geometry"><Array as="points"><mxPoint x="239" y="115"/><mxPoint x="379" y="115"/></Array></mxGeometry></mxCell><mxCell id="label54" value="1" style="edgeLabel;resizable=0;html=1;align=left;verticalAlign=top;strokeColor=#457B9D;labelBackgroundColor=#F1FAEE;fontColor=#1D3557;" parent="edge9" vertex="1" connectable="0"><mxGeometry x="347" y="130" as="geometry"><mxPoint x="90" y="-418" as="offset"/></mxGeometry></mxCell><mxCell id="label58" value="1" style="edgeLabel;resizable=0;html=1;align=left;verticalAlign=top;strokeColor=#457B9D;labelBackgroundColor=#F1FAEE;fontColor=#1D3557;" parent="edge9" vertex="1" connectable="0"><mxGeometry x="466" y="-294" as="geometry"/></mxCell><mxCell id="label59" value="deliveryService" style="edgeLabel;resizable=0;html=1;align=left;verticalAlign=top;strokeColor=#457B9D;labelBackgroundColor=#F1FAEE;fontColor=#1D3557;" parent="edge9" vertex="1" connectable="0"><mxGeometry x="466" y="-262" as="geometry"/></mxCell><mxCell id="edge11" value="" style="html=1;rounded=1;edgeStyle=orthogonalEdgeStyle;dashed=1;startArrow=none;endArrow=openThin;endSize=12;strokeColor=#457B9D;exitX=0.500;exitY=1.001;exitDx=0;exitDy=0;entryX=0.500;entryY=1.002;entryDx=0;entryDy=0;labelBackgroundColor=#F1FAEE;fontColor=#1D3557;" parent="1" source="node8" target="node5" edge="1"><mxGeometry width="50" height="50" relative="1" as="geometry"><Array as="points"><mxPoint x="239" y="189"/><mxPoint x="364" y="189"/></Array></mxGeometry></mxCell><mxCell id="label68" value="«create»" style="edgeLabel;resizable=0;html=1;align=left;verticalAlign=top;strokeColor=#457B9D;labelBackgroundColor=#F1FAEE;fontColor=#1D3557;" parent="edge11" vertex="1" connectable="0"><mxGeometry x="121" y="-451" as="geometry"/></mxCell><mxCell id="edge46" value="" style="html=1;rounded=1;edgeStyle=orthogonalEdgeStyle;dashed=0;startArrow=diamondThinstartSize=12;endArrow=openThin;endSize=12;strokeColor=#457B9D;exitX=0.629;exitY=0.002;exitDx=0;exitDy=0;entryX=0.000;entryY=0.500;entryDx=0;entryDy=0;labelBackgroundColor=#F1FAEE;fontColor=#1D3557;" parent="1" source="node8" target="node16" edge="1"><mxGeometry width="50" height="50" relative="1" as="geometry"><Array as="points"><mxPoint x="263" y="39"/><mxPoint x="454" y="39"/><mxPoint x="454" y="87"/><mxPoint x="497" y="87"/><mxPoint x="497" y="412"/><mxPoint x="26" y="412"/><mxPoint x="26" y="450"/></Array></mxGeometry></mxCell><mxCell id="label276" value="1" style="edgeLabel;resizable=0;html=1;align=left;verticalAlign=top;strokeColor=#457B9D;labelBackgroundColor=#F1FAEE;fontColor=#1D3557;" parent="edge46" vertex="1" connectable="0"><mxGeometry x="79" y="880" as="geometry"/></mxCell><mxCell id="label280" value="1" style="edgeLabel;resizable=0;html=1;align=left;verticalAlign=top;strokeColor=#457B9D;labelBackgroundColor=#F1FAEE;fontColor=#1D3557;" parent="edge46" vertex="1" connectable="0"><mxGeometry x="42" y="449" as="geometry"/></mxCell><mxCell id="label281" value="logInView" style="edgeLabel;resizable=0;html=1;align=left;verticalAlign=top;strokeColor=#457B9D;labelBackgroundColor=#F1FAEE;fontColor=#1D3557;" parent="edge46" vertex="1" connectable="0"><mxGeometry x="279" y="785" as="geometry"/></mxCell><mxCell id="edge1" value="" style="html=1;rounded=1;edgeStyle=orthogonalEdgeStyle;dashed=0;startArrow=none;endArrow=block;endSize=12;strokeColor=#457B9D;exitX=0.500;exitY=0.002;exitDx=0;exitDy=0;entryX=0.500;entryY=1.002;entryDx=0;entryDy=0;labelBackgroundColor=#F1FAEE;fontColor=#1D3557;" parent="1" source="node20" target="node19" edge="1"><mxGeometry width="50" height="50" relative="1" as="geometry"><Array as="points"><mxPoint x="-24" y="39"/><mxPoint x="61" y="39"/></Array></mxGeometry></mxCell><mxCell id="edge63" value="" style="html=1;rounded=1;edgeStyle=orthogonalEdgeStyle;dashed=0;startArrow=diamondThinstartSize=12;endArrow=openThin;endSize=12;strokeColor=#457B9D;exitX=0.412;exitY=0.001;exitDx=0;exitDy=0;entryX=0.500;entryY=0.002;entryDx=0;entryDy=0;labelBackgroundColor=#F1FAEE;fontColor=#1D3557;" parent="1" source="node20" target="node19" edge="1"><mxGeometry width="50" height="50" relative="1" as="geometry"><Array as="points"><mxPoint x="-39" y="-64"/><mxPoint x="61" y="-64"/></Array></mxGeometry></mxCell><mxCell id="label378" value="1" style="edgeLabel;resizable=0;html=1;align=left;verticalAlign=top;strokeColor=#457B9D;labelBackgroundColor=#F1FAEE;fontColor=#1D3557;" parent="edge63" vertex="1" connectable="0"><mxGeometry x="361" y="-471" as="geometry"/></mxCell><mxCell id="label382" value="*" style="edgeLabel;resizable=0;html=1;align=left;verticalAlign=top;strokeColor=#457B9D;labelBackgroundColor=#F1FAEE;fontColor=#1D3557;" parent="edge63" vertex="1" connectable="0"><mxGeometry x="90" y="-39" as="geometry"/></mxCell><mxCell id="label383" value="menuItems" style="edgeLabel;resizable=0;html=1;align=left;verticalAlign=top;strokeColor=#457B9D;labelBackgroundColor=#F1FAEE;fontColor=#1D3557;" parent="edge63" vertex="1" connectable="0"><mxGeometry x="206" y="-494" as="geometry"/></mxCell><mxCell id="edge20" value="" style="html=1;rounded=1;edgeStyle=orthogonalEdgeStyle;dashed=1;startArrow=none;endArrow=openThin;endSize=12;strokeColor=#457B9D;exitX=0.106;exitY=0.001;exitDx=0;exitDy=0;entryX=0.000;entryY=0.500;entryDx=0;entryDy=0;labelBackgroundColor=#F1FAEE;fontColor=#1D3557;" parent="1" source="node3" target="node7" edge="1"><mxGeometry width="50" height="50" relative="1" as="geometry"><Array as="points"><mxPoint x="65" y="228"/></Array></mxGeometry></mxCell><mxCell id="label122" value="«create»" style="edgeLabel;resizable=0;html=1;align=left;verticalAlign=top;strokeColor=#457B9D;labelBackgroundColor=#F1FAEE;fontColor=#1D3557;" parent="edge20" vertex="1" connectable="0"><mxGeometry x="30" y="869" as="geometry"/></mxCell><mxCell id="edge35" value="" style="html=1;rounded=1;edgeStyle=orthogonalEdgeStyle;dashed=0;startArrow=diamondThinstartSize=12;endArrow=openThin;endSize=12;strokeColor=#457B9D;exitX=0.965;exitY=1.001;exitDx=0;exitDy=0;entryX=0.000;entryY=0.500;entryDx=0;entryDy=0;labelBackgroundColor=#F1FAEE;fontColor=#1D3557;" parent="1" source="node3" target="node17" edge="1"><mxGeometry width="50" height="50" relative="1" as="geometry"><Array as="points"><mxPoint x="162" y="543"/><mxPoint x="-122" y="543"/><mxPoint x="-122" y="411"/><mxPoint x="-132" y="411"/><mxPoint x="-132" y="228"/></Array></mxGeometry></mxCell><mxCell id="label210" value="1" style="edgeLabel;resizable=0;html=1;align=left;verticalAlign=top;strokeColor=#457B9D;labelBackgroundColor=#F1FAEE;fontColor=#1D3557;" parent="edge35" vertex="1" connectable="0"><mxGeometry x="-136" y="208" as="geometry"/></mxCell><mxCell id="label214" value="1" style="edgeLabel;resizable=0;html=1;align=left;verticalAlign=top;strokeColor=#457B9D;labelBackgroundColor=#F1FAEE;fontColor=#1D3557;" parent="edge35" vertex="1" connectable="0"><mxGeometry x="64" y="-303" as="geometry"/></mxCell><mxCell id="label215" value="adminGUI" style="edgeLabel;resizable=0;html=1;align=left;verticalAlign=top;strokeColor=#457B9D;labelBackgroundColor=#F1FAEE;fontColor=#1D3557;" parent="edge35" vertex="1" connectable="0"><mxGeometry x="101" y="845" as="geometry"/></mxCell><mxCell id="edge44" value="" style="html=1;rounded=1;edgeStyle=orthogonalEdgeStyle;dashed=0;startArrow=diamondThinstartSize=12;endArrow=openThin;endSize=12;strokeColor=#457B9D;exitX=1.000;exitY=0.500;exitDx=0;exitDy=0;entryX=0.500;entryY=1.001;entryDx=0;entryDy=0;labelBackgroundColor=#F1FAEE;fontColor=#1D3557;" parent="1" source="node3" target="node0" edge="1"><mxGeometry width="50" height="50" relative="1" as="geometry"><Array as="points"><mxPoint x="186" y="376"/><mxPoint x="186" y="561"/><mxPoint x="507" y="561"/><mxPoint x="507" y="170"/><mxPoint x="512" y="170"/><mxPoint x="512" y="575"/><mxPoint x="-66" y="575"/></Array></mxGeometry></mxCell><mxCell id="label264" value="1" style="edgeLabel;resizable=0;html=1;align=left;verticalAlign=top;strokeColor=#457B9D;labelBackgroundColor=#F1FAEE;fontColor=#1D3557;" parent="edge44" vertex="1" connectable="0"><mxGeometry x="-108" y="932" as="geometry"/></mxCell><mxCell id="label268" value="1" style="edgeLabel;resizable=0;html=1;align=left;verticalAlign=top;strokeColor=#457B9D;labelBackgroundColor=#F1FAEE;fontColor=#1D3557;" parent="edge44" vertex="1" connectable="0"><mxGeometry x="-185" y="922" as="geometry"/></mxCell><mxCell id="label269" value="client" style="edgeLabel;resizable=0;html=1;align=left;verticalAlign=top;strokeColor=#457B9D;labelBackgroundColor=#F1FAEE;fontColor=#1D3557;" parent="edge44" vertex="1" connectable="0"><mxGeometry x="-312" y="924" as="geometry"/></mxCell><mxCell id="edge40" value="" style="html=1;rounded=1;edgeStyle=orthogonalEdgeStyle;dashed=1;startArrow=none;endArrow=openThin;endSize=12;strokeColor=#457B9D;exitX=0.000;exitY=0.500;exitDx=0;exitDy=0;entryX=0.500;entryY=1.001;entryDx=0;entryDy=0;labelBackgroundColor=#F1FAEE;fontColor=#1D3557;" parent="1" source="node3" target="node11" edge="1"><mxGeometry width="50" height="50" relative="1" as="geometry"><Array as="points"><mxPoint x="43" y="375"/><mxPoint x="43" y="265"/><mxPoint x="371" y="265"/></Array></mxGeometry></mxCell><mxCell id="label242" value="«create»" style="edgeLabel;resizable=0;html=1;align=left;verticalAlign=top;strokeColor=#457B9D;labelBackgroundColor=#F1FAEE;fontColor=#1D3557;" parent="edge40" vertex="1" connectable="0"><mxGeometry x="296" y="1295" as="geometry"/></mxCell><mxCell id="edge25" value="" style="html=1;rounded=1;edgeStyle=orthogonalEdgeStyle;dashed=0;startArrow=diamondThinstartSize=12;endArrow=openThin;endSize=12;strokeColor=#457B9D;exitX=0.000;exitY=0.862;exitDx=0;exitDy=0;entryX=0.500;entryY=0.002;entryDx=0;entryDy=0;labelBackgroundColor=#F1FAEE;fontColor=#1D3557;" parent="1" source="node3" target="node15" edge="1"><mxGeometry width="50" height="50" relative="1" as="geometry"><Array as="points"><mxPoint x="40" y="385"/><mxPoint x="40" y="427"/><mxPoint x="3" y="427"/><mxPoint x="3" y="411"/><mxPoint x="-54" y="411"/></Array></mxGeometry></mxCell><mxCell id="label150" value="1" style="edgeLabel;resizable=0;html=1;align=left;verticalAlign=top;strokeColor=#457B9D;labelBackgroundColor=#F1FAEE;fontColor=#1D3557;" parent="edge25" vertex="1" connectable="0"><mxGeometry x="199" y="855" as="geometry"/></mxCell><mxCell id="label154" value="1" style="edgeLabel;resizable=0;html=1;align=left;verticalAlign=top;strokeColor=#457B9D;labelBackgroundColor=#F1FAEE;fontColor=#1D3557;" parent="edge25" vertex="1" connectable="0"><mxGeometry x="-66" y="410" as="geometry"/></mxCell><mxCell id="label155" value="clientGUI" style="edgeLabel;resizable=0;html=1;align=left;verticalAlign=top;strokeColor=#457B9D;labelBackgroundColor=#F1FAEE;fontColor=#1D3557;" parent="edge25" vertex="1" connectable="0"><mxGeometry x="288" y="846" as="geometry"/></mxCell><mxCell id="edge10" value="" style="html=1;rounded=1;edgeStyle=orthogonalEdgeStyle;dashed=1;startArrow=none;endArrow=openThin;endSize=12;strokeColor=#457B9D;exitX=0.500;exitY=0.002;exitDx=0;exitDy=0;entryX=0.500;entryY=1.002;entryDx=0;entryDy=0;labelBackgroundColor=#F1FAEE;fontColor=#1D3557;" parent="1" source="node3" target="node5" edge="1"><mxGeometry width="50" height="50" relative="1" as="geometry"><Array as="points"><mxPoint x="110" y="337"/><mxPoint x="232" y="337"/><mxPoint x="232" y="263"/><mxPoint x="463" y="263"/><mxPoint x="463" y="189"/><mxPoint x="364" y="189"/></Array></mxGeometry></mxCell><mxCell id="label62" value="«create»" style="edgeLabel;resizable=0;html=1;align=left;verticalAlign=top;strokeColor=#457B9D;labelBackgroundColor=#F1FAEE;fontColor=#1D3557;" parent="edge10" vertex="1" connectable="0"><mxGeometry x="412" y="-266" as="geometry"/></mxCell><mxCell id="edge14" value="" style="html=1;rounded=1;edgeStyle=orthogonalEdgeStyle;dashed=1;startArrow=none;endArrow=openThin;endSize=12;strokeColor=#457B9D;exitX=0.690;exitY=0.002;exitDx=0;exitDy=0;entryX=0.390;entryY=1.002;entryDx=0;entryDy=0;labelBackgroundColor=#F1FAEE;fontColor=#1D3557;" parent="1" source="node3" target="node9" edge="1"><mxGeometry width="50" height="50" relative="1" as="geometry"><Array as="points"/></mxGeometry></mxCell><mxCell id="label86" value="«create»" style="edgeLabel;resizable=0;html=1;align=left;verticalAlign=top;strokeColor=#457B9D;labelBackgroundColor=#F1FAEE;fontColor=#1D3557;" parent="edge14" vertex="1" connectable="0"><mxGeometry x="313" y="-346" as="geometry"/></mxCell><mxCell id="edge62" value="" style="html=1;rounded=1;edgeStyle=orthogonalEdgeStyle;dashed=0;startArrow=diamondThinstartSize=12;endArrow=openThin;endSize=12;strokeColor=#457B9D;exitX=0.823;exitY=0.002;exitDx=0;exitDy=0;entryX=0.500;entryY=1.002;entryDx=0;entryDy=0;labelBackgroundColor=#F1FAEE;fontColor=#1D3557;" parent="1" source="node3" target="node9" edge="1"><mxGeometry width="50" height="50" relative="1" as="geometry"><Array as="points"/></mxGeometry></mxCell><mxCell id="label372" value="1" style="edgeLabel;resizable=0;html=1;align=left;verticalAlign=top;strokeColor=#457B9D;labelBackgroundColor=#F1FAEE;fontColor=#1D3557;" parent="edge62" vertex="1" connectable="0"><mxGeometry x="95" y="295" as="geometry"/></mxCell><mxCell id="label376" value="1" style="edgeLabel;resizable=0;html=1;align=left;verticalAlign=top;strokeColor=#457B9D;labelBackgroundColor=#F1FAEE;fontColor=#1D3557;" parent="edge62" vertex="1" connectable="0"><mxGeometry x="131" y="300" as="geometry"/></mxCell><mxCell id="label377" value="employeeGUI" style="edgeLabel;resizable=0;html=1;align=left;verticalAlign=top;strokeColor=#457B9D;labelBackgroundColor=#F1FAEE;fontColor=#1D3557;" parent="edge62" vertex="1" connectable="0"><mxGeometry x="200" y="928" as="geometry"/></mxCell><mxCell id="edge45" value="" style="html=1;rounded=1;edgeStyle=orthogonalEdgeStyle;dashed=1;startArrow=none;endArrow=openThin;endSize=12;strokeColor=#457B9D;exitX=0.389;exitY=1.002;exitDx=0;exitDy=0;entryX=0.500;entryY=0.002;entryDx=0;entryDy=0;labelBackgroundColor=#F1FAEE;fontColor=#1D3557;" parent="1" source="node3" target="node16" edge="1"><mxGeometry width="50" height="50" relative="1" as="geometry"><Array as="points"/></mxGeometry></mxCell><mxCell id="label272" value="«create»" style="edgeLabel;resizable=0;html=1;align=left;verticalAlign=top;strokeColor=#457B9D;labelBackgroundColor=#F1FAEE;fontColor=#1D3557;" parent="edge45" vertex="1" connectable="0"><mxGeometry x="369" y="790" as="geometry"/></mxCell><mxCell id="edge50" value="" style="html=1;rounded=1;edgeStyle=orthogonalEdgeStyle;dashed=0;startArrow=diamondThinstartSize=12;endArrow=openThin;endSize=12;strokeColor=#457B9D;exitX=0.000;exitY=0.500;exitDx=0;exitDy=0;entryX=0.000;entryY=0.500;entryDx=0;entryDy=0;labelBackgroundColor=#F1FAEE;fontColor=#1D3557;" parent="1" source="node3" target="node16" edge="1"><mxGeometry width="50" height="50" relative="1" as="geometry"><Array as="points"><mxPoint x="26" y="375"/><mxPoint x="26" y="449"/></Array></mxGeometry></mxCell><mxCell id="label300" value="1" style="edgeLabel;resizable=0;html=1;align=left;verticalAlign=top;strokeColor=#457B9D;labelBackgroundColor=#F1FAEE;fontColor=#1D3557;" parent="edge50" vertex="1" connectable="0"><mxGeometry x="-31" y="879" as="geometry"/></mxCell><mxCell id="label304" value="1" style="edgeLabel;resizable=0;html=1;align=left;verticalAlign=top;strokeColor=#457B9D;labelBackgroundColor=#F1FAEE;fontColor=#1D3557;" parent="edge50" vertex="1" connectable="0"><mxGeometry x="19" y="897" as="geometry"/></mxCell><mxCell id="label305" value="logInView" style="edgeLabel;resizable=0;html=1;align=left;verticalAlign=top;strokeColor=#457B9D;labelBackgroundColor=#F1FAEE;fontColor=#1D3557;" parent="edge50" vertex="1" connectable="0"><mxGeometry x="466" y="1028" as="geometry"/></mxCell><mxCell id="edge26" value="" style="html=1;rounded=1;edgeStyle=orthogonalEdgeStyle;dashed=1;startArrow=none;endArrow=openThin;endSize=12;strokeColor=#457B9D;exitX=0.500;exitY=0.001;exitDx=0;exitDy=0;entryX=0.731;entryY=1.001;entryDx=0;entryDy=0;labelBackgroundColor=#F1FAEE;fontColor=#1D3557;" parent="1" source="node3" target="node4" edge="1"><mxGeometry width="50" height="50" relative="1" as="geometry"><Array as="points"><mxPoint x="110" y="350"/><mxPoint x="334" y="350"/><mxPoint x="334" y="375"/><mxPoint x="346" y="375"/></Array></mxGeometry></mxCell><mxCell id="label158" value="«create»" style="edgeLabel;resizable=0;html=1;align=left;verticalAlign=top;strokeColor=#457B9D;labelBackgroundColor=#F1FAEE;fontColor=#1D3557;" parent="edge26" vertex="1" connectable="0"><mxGeometry x="371" y="1988" as="geometry"/></mxCell><mxCell id="edge53" value="" style="html=1;rounded=1;edgeStyle=orthogonalEdgeStyle;dashed=0;startArrow=diamondThinstartSize=12;endArrow=openThin;endSize=12;strokeColor=#457B9D;exitX=0.500;exitY=0.001;exitDx=0;exitDy=0;labelBackgroundColor=#F1FAEE;fontColor=#1D3557;" parent="1" source="node3" edge="1"><mxGeometry width="50" height="50" relative="1" as="geometry"><Array as="points"><mxPoint x="110" y="350"/><mxPoint x="477" y="350"/><mxPoint x="477" y="301"/></Array><mxPoint x="386" y="319" as="targetPoint"/></mxGeometry></mxCell><mxCell id="label318" value="1" style="edgeLabel;resizable=0;html=1;align=left;verticalAlign=top;strokeColor=#457B9D;labelBackgroundColor=#F1FAEE;fontColor=#1D3557;" parent="edge53" vertex="1" connectable="0"><mxGeometry x="408" y="302" as="geometry"><mxPoint x="32" y="1271" as="offset"/></mxGeometry></mxCell><mxCell id="label322" value="1" style="edgeLabel;resizable=0;html=1;align=left;verticalAlign=top;strokeColor=#457B9D;labelBackgroundColor=#F1FAEE;fontColor=#1D3557;" parent="edge53" vertex="1" connectable="0"><mxGeometry x="382" y="301" as="geometry"/></mxCell><mxCell id="label323" value="serializator" style="edgeLabel;resizable=0;html=1;align=left;verticalAlign=top;strokeColor=#457B9D;labelBorderColor=none;fontColor=#1D3557;noLabel=1;labelBackgroundColor=#F1FAEE;" parent="edge53" vertex="1" connectable="0"><mxGeometry x="414" y="-541" as="geometry"/></mxCell><mxCell id="edge16" value="" style="html=1;rounded=1;edgeStyle=orthogonalEdgeStyle;dashed=1;startArrow=none;endArrow=openThin;endSize=12;strokeColor=#457B9D;exitX=0.000;exitY=0.500;exitDx=0;exitDy=0;entryX=0.942;entryY=0.002;entryDx=0;entryDy=0;labelBackgroundColor=#F1FAEE;fontColor=#1D3557;" parent="1" source="node5" target="node22" edge="1"><mxGeometry width="50" height="50" relative="1" as="geometry"><Array as="points"><mxPoint x="239" y="79"/><mxPoint x="239" y="41"/><mxPoint x="203" y="41"/></Array></mxGeometry></mxCell><mxCell id="label98" value="«create»" style="edgeLabel;resizable=0;html=1;align=left;verticalAlign=top;strokeColor=#457B9D;labelBackgroundColor=#F1FAEE;fontColor=#1D3557;" parent="edge16" vertex="1" connectable="0"><mxGeometry x="38" y="-716" as="geometry"/></mxCell><mxCell id="edge34" value="" style="html=1;rounded=1;edgeStyle=orthogonalEdgeStyle;dashed=0;startArrow=diamondThinstartSize=12;endArrow=openThin;endSize=12;strokeColor=#457B9D;exitX=0.928;exitY=1.001;exitDx=0;exitDy=0;entryX=0.500;entryY=1.001;entryDx=0;entryDy=0;labelBackgroundColor=#F1FAEE;fontColor=#1D3557;" parent="1" source="node5" target="node0" edge="1"><mxGeometry width="50" height="50" relative="1" as="geometry"><Array as="points"><mxPoint x="425" y="170"/><mxPoint x="512" y="170"/><mxPoint x="512" y="601"/><mxPoint x="-66" y="601"/></Array></mxGeometry></mxCell><mxCell id="label204" value="1" style="edgeLabel;resizable=0;html=1;align=left;verticalAlign=top;strokeColor=#457B9D;labelBackgroundColor=#F1FAEE;fontColor=#1D3557;" parent="edge34" vertex="1" connectable="0"><mxGeometry x="-272" y="1019" as="geometry"/></mxCell><mxCell id="label208" value="*" style="edgeLabel;resizable=0;html=1;align=left;verticalAlign=top;strokeColor=#457B9D;labelBackgroundColor=#F1FAEE;fontColor=#1D3557;" parent="edge34" vertex="1" connectable="0"><mxGeometry x="-66" y="542" as="geometry"/></mxCell><mxCell id="label209" value="clients" style="edgeLabel;resizable=0;html=1;align=left;verticalAlign=top;strokeColor=#457B9D;labelBackgroundColor=#F1FAEE;fontColor=#1D3557;" parent="edge34" vertex="1" connectable="0"><mxGeometry x="-328" y="1126" as="geometry"/></mxCell><mxCell id="edge52" value="" style="html=1;rounded=1;edgeStyle=orthogonalEdgeStyle;dashed=1;startArrow=none;endArrow=openThin;endSize=12;strokeColor=#457B9D;exitX=0.500;exitY=1.001;exitDx=0;exitDy=0;entryX=0.000;entryY=0.500;entryDx=0;entryDy=0;labelBackgroundColor=#F1FAEE;fontColor=#1D3557;" parent="1" source="node5" target="node0" edge="1"><mxGeometry width="50" height="50" relative="1" as="geometry"><Array as="points"><mxPoint x="364" y="103"/><mxPoint x="-119" y="103"/><mxPoint x="-119" y="524"/></Array></mxGeometry></mxCell><mxCell id="label314" value="«create»" style="edgeLabel;resizable=0;html=1;align=left;verticalAlign=top;strokeColor=#457B9D;labelBackgroundColor=#F1FAEE;fontColor=#1D3557;" parent="edge52" vertex="1" connectable="0"><mxGeometry x="-366" y="895" as="geometry"/></mxCell><mxCell id="edge36" value="" style="html=1;rounded=1;edgeStyle=orthogonalEdgeStyle;dashed=1;startArrow=none;endArrow=openThin;endSize=12;strokeColor=#457B9D;exitX=1.000;exitY=0.862;exitDx=0;exitDy=0;entryX=0.000;entryY=0.500;entryDx=0;entryDy=0;labelBackgroundColor=#F1FAEE;fontColor=#1D3557;" parent="1" edge="1"><mxGeometry width="50" height="50" relative="1" as="geometry"><Array as="points"><mxPoint x="402" y="125.28"/><mxPoint x="509" y="125.28"/><mxPoint x="509" y="-12.719999999999999"/><mxPoint x="-48" y="-12.719999999999999"/><mxPoint x="-48" y="116.28"/></Array><mxPoint x="402" y="127.00199999999998" as="sourcePoint"/><mxPoint x="-143" y="115.78" as="targetPoint"/></mxGeometry></mxCell><mxCell id="label218" value="«create»" style="edgeLabel;resizable=0;html=1;align=left;verticalAlign=top;strokeColor=#457B9D;labelBackgroundColor=#F1FAEE;fontColor=#1D3557;" parent="edge36" vertex="1" connectable="0"><mxGeometry x="45" y="-277" as="geometry"/></mxCell><mxCell id="edge41" value="" style="html=1;rounded=1;edgeStyle=orthogonalEdgeStyle;dashed=1;startArrow=none;endArrow=openThin;endSize=12;strokeColor=#457B9D;exitX=0.614;exitY=0.001;exitDx=0;exitDy=0;entryX=1.000;entryY=0.500;entryDx=0;entryDy=0;labelBackgroundColor=#F1FAEE;fontColor=#1D3557;" parent="1" source="node5" target="node1" edge="1"><mxGeometry width="50" height="50" relative="1" as="geometry"><Array as="points"><mxPoint x="380" y="51"/><mxPoint x="566" y="51"/><mxPoint x="566" y="375"/></Array></mxGeometry></mxCell><mxCell id="label248" value="«create»" style="edgeLabel;resizable=0;html=1;align=left;verticalAlign=top;strokeColor=#457B9D;labelBackgroundColor=#F1FAEE;fontColor=#1D3557;" parent="edge41" vertex="1" connectable="0"><mxGeometry x="479" y="759" as="geometry"/></mxCell><mxCell id="edge0" value="" style="html=1;rounded=1;edgeStyle=orthogonalEdgeStyle;dashed=1;startArrow=none;endArrow=block;endSize=12;strokeColor=#457B9D;exitX=0.500;exitY=0.002;exitDx=0;exitDy=0;entryX=0.500;entryY=1.002;entryDx=0;entryDy=0;labelBackgroundColor=#F1FAEE;fontColor=#1D3557;" parent="1" source="node5" target="node12" edge="1"><mxGeometry width="50" height="50" relative="1" as="geometry"><Array as="points"/></mxGeometry></mxCell><mxCell id="edge7" value="" style="html=1;rounded=1;edgeStyle=orthogonalEdgeStyle;dashed=0;startArrow=diamondThinstartSize=12;endArrow=openThin;endSize=12;strokeColor=#457B9D;exitX=0.000;exitY=0.138;exitDx=0;exitDy=0;entryX=0.500;entryY=0.002;entryDx=0;entryDy=0;labelBackgroundColor=#F1FAEE;fontColor=#1D3557;" parent="1" source="node5" target="node19" edge="1"><mxGeometry width="50" height="50" relative="1" as="geometry"><Array as="points"><mxPoint x="278" y="68"/><mxPoint x="278" y="61"/><mxPoint x="213" y="61"/><mxPoint x="213"/><mxPoint x="187"/><mxPoint x="187" y="-64"/><mxPoint x="61" y="-64"/></Array></mxGeometry></mxCell><mxCell id="label42" value="1" style="edgeLabel;resizable=0;html=1;align=left;verticalAlign=top;strokeColor=#457B9D;labelBackgroundColor=#F1FAEE;fontColor=#1D3557;" parent="edge7" vertex="1" connectable="0"><mxGeometry x="143" y="-495" as="geometry"/></mxCell><mxCell id="label46" value="*" style="edgeLabel;resizable=0;html=1;align=left;verticalAlign=top;strokeColor=#457B9D;labelBackgroundColor=#F1FAEE;fontColor=#1D3557;" parent="edge7" vertex="1" connectable="0"><mxGeometry x="61" y="-40" as="geometry"/></mxCell><mxCell id="label47" value="menu" style="edgeLabel;resizable=0;html=1;align=left;verticalAlign=top;strokeColor=#457B9D;labelBackgroundColor=#F1FAEE;fontColor=#1D3557;" parent="edge7" vertex="1" connectable="0"><mxGeometry x="186" y="-442" as="geometry"/></mxCell><mxCell id="edge17" value="" style="html=1;rounded=1;edgeStyle=orthogonalEdgeStyle;dashed=0;startArrow=diamondThinstartSize=12;endArrow=openThin;endSize=12;strokeColor=#457B9D;exitX=0.686;exitY=0.001;exitDx=0;exitDy=0;entryX=1.000;entryY=0.862;entryDx=0;entryDy=0;labelBackgroundColor=#F1FAEE;fontColor=#1D3557;" parent="1" source="node5" target="node14" edge="1"><mxGeometry width="50" height="50" relative="1" as="geometry"><Array as="points"><mxPoint x="391" y="29"/><mxPoint x="582" y="29"/><mxPoint x="582" y="459"/></Array></mxGeometry></mxCell><mxCell id="label102" value="1" style="edgeLabel;resizable=0;html=1;align=left;verticalAlign=top;strokeColor=#457B9D;labelBackgroundColor=#F1FAEE;fontColor=#1D3557;" parent="edge17" vertex="1" connectable="0"><mxGeometry x="620" y="728" as="geometry"/></mxCell><mxCell id="label106" value="*" style="edgeLabel;resizable=0;html=1;align=left;verticalAlign=top;strokeColor=#457B9D;labelBackgroundColor=#F1FAEE;fontColor=#1D3557;" parent="edge17" vertex="1" connectable="0"><mxGeometry x="435" y="440" as="geometry"/></mxCell><mxCell id="label107" value="orders" style="edgeLabel;resizable=0;html=1;align=left;verticalAlign=top;strokeColor=#457B9D;labelBackgroundColor=#F1FAEE;fontColor=#1D3557;" parent="edge17" vertex="1" connectable="0"><mxGeometry x="418" y="742" as="geometry"/></mxCell><mxCell id="edge43" value="" style="html=1;rounded=1;edgeStyle=orthogonalEdgeStyle;dashed=1;startArrow=none;endArrow=openThin;endSize=12;strokeColor=#457B9D;exitX=1.000;exitY=0.138;exitDx=0;exitDy=0;entryX=1.000;entryY=0.500;entryDx=0;entryDy=0;labelBackgroundColor=#F1FAEE;fontColor=#1D3557;" parent="1" source="node5" target="node14" edge="1"><mxGeometry width="50" height="50" relative="1" as="geometry"><Array as="points"><mxPoint x="554" y="68"/><mxPoint x="554" y="449"/></Array></mxGeometry></mxCell><mxCell id="label260" value="«create»" style="edgeLabel;resizable=0;html=1;align=left;verticalAlign=top;strokeColor=#457B9D;labelBackgroundColor=#F1FAEE;fontColor=#1D3557;" parent="edge43" vertex="1" connectable="0"><mxGeometry x="541" y="759" as="geometry"/></mxCell><mxCell id="edge13" value="" style="html=1;rounded=1;edgeStyle=orthogonalEdgeStyle;dashed=0;startArrow=diamondThinstartSize=12;endArrow=openThin;endSize=12;strokeColor=#457B9D;exitX=0.793;exitY=1.001;exitDx=0;exitDy=0;entryX=1.000;entryY=0.500;entryDx=0;entryDy=0;labelBackgroundColor=#F1FAEE;fontColor=#1D3557;" parent="1" source="node5" target="node4" edge="1"><mxGeometry width="50" height="50" relative="1" as="geometry"><Array as="points"><mxPoint x="406" y="133"/><mxPoint x="477" y="133"/><mxPoint x="477" y="301"/></Array></mxGeometry></mxCell><mxCell id="label78" value="1" style="edgeLabel;resizable=0;html=1;align=left;verticalAlign=top;strokeColor=#457B9D;labelBackgroundColor=#F1FAEE;fontColor=#1D3557;" parent="edge13" vertex="1" connectable="0"><mxGeometry x="459" y="282" as="geometry"/></mxCell><mxCell id="label82" value="1" style="edgeLabel;resizable=0;html=1;align=left;verticalAlign=top;strokeColor=#457B9D;labelBackgroundColor=#F1FAEE;fontColor=#1D3557;" parent="edge13" vertex="1" connectable="0"><mxGeometry x="383" y="284" as="geometry"/></mxCell><mxCell id="label83" value="serializator" style="edgeLabel;resizable=0;html=1;align=left;verticalAlign=top;strokeColor=#457B9D;labelBackgroundColor=#F1FAEE;fontColor=#1D3557;" parent="edge13" vertex="1" connectable="0"><mxGeometry x="339" y="1267" as="geometry"/></mxCell><mxCell id="edge31" value="" style="html=1;rounded=1;edgeStyle=orthogonalEdgeStyle;dashed=1;startArrow=none;endArrow=openThin;endSize=12;strokeColor=#457B9D;exitX=1.000;exitY=0.500;exitDx=0;exitDy=0;entryX=0.731;entryY=1.001;entryDx=0;entryDy=0;labelBackgroundColor=#F1FAEE;fontColor=#1D3557;" parent="1" source="node5" target="node4" edge="1"><mxGeometry width="50" height="50" relative="1" as="geometry"><Array as="points"><mxPoint x="446" y="79"/><mxPoint x="446" y="320"/><mxPoint x="346" y="320"/></Array></mxGeometry></mxCell><mxCell id="label188" value="«create»" style="edgeLabel;resizable=0;html=1;align=left;verticalAlign=top;strokeColor=#457B9D;labelBackgroundColor=#F1FAEE;fontColor=#1D3557;" parent="edge31" vertex="1" connectable="0"><mxGeometry x="371" y="999" as="geometry"/></mxCell><mxCell id="edge58" value="" style="html=1;rounded=1;edgeStyle=orthogonalEdgeStyle;dashed=1;startArrow=none;endArrow=openThin;endSize=12;strokeColor=#457B9D;exitX=0.500;exitY=0.002;exitDx=0;exitDy=0;entryX=0.500;entryY=1.002;entryDx=0;entryDy=0;labelBackgroundColor=#F1FAEE;fontColor=#1D3557;" parent="1" source="node1" target="node5" edge="1"><mxGeometry width="50" height="50" relative="1" as="geometry"><Array as="points"><mxPoint x="424" y="353"/><mxPoint x="232" y="353"/><mxPoint x="232" y="263"/><mxPoint x="463" y="263"/><mxPoint x="463" y="189"/><mxPoint x="364" y="189"/></Array></mxGeometry></mxCell><mxCell id="label350" value="«create»" style="edgeLabel;resizable=0;html=1;align=left;verticalAlign=top;strokeColor=#457B9D;labelBackgroundColor=#F1FAEE;fontColor=#1D3557;" parent="edge58" vertex="1" connectable="0"><mxGeometry x="441" y="-275" as="geometry"/></mxCell><mxCell id="edge28" value="" style="html=1;rounded=1;edgeStyle=orthogonalEdgeStyle;dashed=0;startArrow=diamondThinstartSize=12;endArrow=openThin;endSize=12;strokeColor=#457B9D;exitX=0.000;exitY=0.500;exitDx=0;exitDy=0;entryX=0.000;entryY=0.500;entryDx=0;entryDy=0;labelBackgroundColor=#F1FAEE;fontColor=#1D3557;" parent="1" source="node6" target="node17" edge="1"><mxGeometry width="50" height="50" relative="1" as="geometry"><Array as="points"><mxPoint x="-136" y="153"/><mxPoint x="-136" y="227"/></Array></mxGeometry></mxCell><mxCell id="label168" value="1" style="edgeLabel;resizable=0;html=1;align=left;verticalAlign=top;strokeColor=#457B9D;labelBackgroundColor=#F1FAEE;fontColor=#1D3557;" parent="edge28" vertex="1" connectable="0"><mxGeometry x="-136" y="225" as="geometry"/></mxCell><mxCell id="label172" value="1" style="edgeLabel;resizable=0;html=1;align=left;verticalAlign=top;strokeColor=#457B9D;labelBackgroundColor=#F1FAEE;fontColor=#1D3557;" parent="edge28" vertex="1" connectable="0"><mxGeometry x="-113" y="264" as="geometry"/></mxCell><mxCell id="label173" value="adminView" style="edgeLabel;resizable=0;html=1;align=left;verticalAlign=top;strokeColor=#457B9D;labelBackgroundColor=#F1FAEE;fontColor=#1D3557;" parent="edge28" vertex="1" connectable="0"><mxGeometry x="193" y="-318" as="geometry"/></mxCell><mxCell id="edge15" value="" style="html=1;rounded=1;edgeStyle=orthogonalEdgeStyle;dashed=1;startArrow=none;endArrow=openThin;endSize=12;strokeColor=#457B9D;exitX=0.500;exitY=1.001;exitDx=0;exitDy=0;entryX=0.500;entryY=1.002;entryDx=0;entryDy=0;labelBackgroundColor=#F1FAEE;fontColor=#1D3557;" parent="1" source="node6" target="node5" edge="1"><mxGeometry width="50" height="50" relative="1" as="geometry"><Array as="points"><mxPoint x="-3" y="189"/><mxPoint x="364" y="189"/></Array></mxGeometry></mxCell><mxCell id="label92" value="«create»" style="edgeLabel;resizable=0;html=1;align=left;verticalAlign=top;strokeColor=#457B9D;labelBackgroundColor=#F1FAEE;fontColor=#1D3557;" parent="edge15" vertex="1" connectable="0"><mxGeometry x="371" y="-439" as="geometry"/></mxCell><mxCell id="edge48" value="" style="html=1;rounded=1;edgeStyle=orthogonalEdgeStyle;dashed=0;startArrow=diamondThinstartSize=12;endArrow=openThin;endSize=12;strokeColor=#457B9D;exitX=0.142;exitY=1.001;exitDx=0;exitDy=0;entryX=0.603;entryY=1.001;entryDx=0;entryDy=0;labelBackgroundColor=#F1FAEE;fontColor=#1D3557;" parent="1" source="node6" target="node5" edge="1"><mxGeometry width="50" height="50" relative="1" as="geometry"><Array as="points"><mxPoint x="-79" y="198"/><mxPoint x="-157" y="198"/><mxPoint x="-157" y="115"/><mxPoint x="378" y="115"/></Array></mxGeometry></mxCell><mxCell id="label288" value="1" style="edgeLabel;resizable=0;html=1;align=left;verticalAlign=top;strokeColor=#457B9D;labelBackgroundColor=#F1FAEE;fontColor=#1D3557;" parent="edge48" vertex="1" connectable="0"><mxGeometry x="434" y="-275" as="geometry"/></mxCell><mxCell id="label292" value="1" style="edgeLabel;resizable=0;html=1;align=left;verticalAlign=top;strokeColor=#457B9D;labelBackgroundColor=#F1FAEE;fontColor=#1D3557;" parent="edge48" vertex="1" connectable="0"><mxGeometry x="434" y="-254" as="geometry"/></mxCell><mxCell id="label293" value="deliveryService" style="edgeLabel;resizable=0;html=1;align=left;verticalAlign=top;strokeColor=#457B9D;labelBackgroundColor=#F1FAEE;fontColor=#1D3557;" parent="edge48" vertex="1" connectable="0"><mxGeometry x="424" y="-293" as="geometry"/></mxCell><mxCell id="edge6" value="" style="html=1;rounded=1;edgeStyle=orthogonalEdgeStyle;dashed=0;startArrow=diamondThinstartSize=12;endArrow=openThin;endSize=12;strokeColor=#457B9D;exitX=0.000;exitY=0.138;exitDx=0;exitDy=0;entryX=0.000;entryY=0.500;entryDx=0;entryDy=0;labelBackgroundColor=#F1FAEE;fontColor=#1D3557;" parent="1" source="node6" target="node13" edge="1"><mxGeometry width="50" height="50" relative="1" as="geometry"><Array as="points"><mxPoint x="-207" y="142"/><mxPoint x="-207" y="375"/></Array></mxGeometry></mxCell><mxCell id="label36" value="1" style="edgeLabel;resizable=0;html=1;align=left;verticalAlign=top;strokeColor=#457B9D;fontColor=#1D3557;labelBackgroundColor=#F1FAEE;" parent="edge6" vertex="1" connectable="0"><mxGeometry x="-91" y="942" as="geometry"/></mxCell><mxCell id="label40" value="1" style="edgeLabel;resizable=0;html=1;align=left;verticalAlign=top;strokeColor=#457B9D;labelBackgroundColor=#F1FAEE;fontColor=#1D3557;" parent="edge6" vertex="1" connectable="0"><mxGeometry x="-110" y="415" as="geometry"/></mxCell><mxCell id="label41" value="reportView" style="edgeLabel;resizable=0;html=1;align=left;verticalAlign=top;strokeColor=#457B9D;labelBackgroundColor=#F1FAEE;fontColor=#1D3557;" parent="edge6" vertex="1" connectable="0"><mxGeometry x="30" y="874" as="geometry"/></mxCell><mxCell id="edge22" value="" style="html=1;rounded=1;edgeStyle=orthogonalEdgeStyle;dashed=1;startArrow=none;endArrow=openThin;endSize=12;strokeColor=#457B9D;exitX=0.000;exitY=0.862;exitDx=0;exitDy=0;entryX=0.000;entryY=0.293;entryDx=0;entryDy=0;labelBackgroundColor=#F1FAEE;fontColor=#1D3557;" parent="1" source="node6" target="node13" edge="1"><mxGeometry width="50" height="50" relative="1" as="geometry"><Array as="points"><mxPoint x="-146" y="163"/><mxPoint x="-146" y="369"/></Array></mxGeometry></mxCell><mxCell id="label134" value="«create»" style="edgeLabel;resizable=0;html=1;align=left;verticalAlign=top;strokeColor=#457B9D;labelBackgroundColor=#F1FAEE;fontColor=#1D3557;" parent="edge22" vertex="1" connectable="0"><mxGeometry x="-73" y="807" as="geometry"/></mxCell><mxCell id="edge12" value="" style="html=1;rounded=1;edgeStyle=orthogonalEdgeStyle;dashed=1;startArrow=none;endArrow=openThin;endSize=12;strokeColor=#457B9D;entryX=0.942;entryY=0.002;entryDx=0;entryDy=0;labelBackgroundColor=#F1FAEE;fontColor=#1D3557;" parent="1" target="node22" edge="1"><mxGeometry width="50" height="50" relative="1" as="geometry"><Array as="points"><mxPoint x="533" y="290"/><mxPoint x="533" y="-38"/><mxPoint x="239" y="-38"/><mxPoint x="239" y="41"/><mxPoint x="203" y="41"/></Array><mxPoint x="385" y="290" as="sourcePoint"/></mxGeometry></mxCell><mxCell id="label74" value="«create»" style="edgeLabel;resizable=0;html=1;align=left;verticalAlign=top;strokeColor=#457B9D;labelBackgroundColor=#F1FAEE;fontColor=#1D3557;" parent="edge12" vertex="1" connectable="0"><mxGeometry x="160" y="-357" as="geometry"/></mxCell><mxCell id="edge8" value="" style="html=1;rounded=1;edgeStyle=orthogonalEdgeStyle;dashed=1;startArrow=none;endArrow=openThin;endSize=12;strokeColor=#457B9D;exitX=0.500;exitY=1.001;exitDx=0;exitDy=0;entryX=0.500;entryY=1.002;entryDx=0;entryDy=0;labelBackgroundColor=#F1FAEE;fontColor=#1D3557;" parent="1" source="node4" target="node5" edge="1"><mxGeometry width="50" height="50" relative="1" as="geometry"><Array as="points"><mxPoint x="319" y="337"/><mxPoint x="232" y="337"/><mxPoint x="232" y="263"/><mxPoint x="463" y="263"/><mxPoint x="463" y="189"/><mxPoint x="364" y="189"/></Array></mxGeometry></mxCell><mxCell id="label50" value="«create»" style="edgeLabel;resizable=0;html=1;align=left;verticalAlign=top;strokeColor=#457B9D;labelBackgroundColor=#F1FAEE;fontColor=#1D3557;" parent="edge8" vertex="1" connectable="0"><mxGeometry x="414" y="-286" as="geometry"/></mxCell><mxCell id="2" value="Text" style="edgeLabel;html=1;align=center;verticalAlign=middle;resizable=0;points=[];labelBackgroundColor=#F1FAEE;fontColor=#1D3557;" parent="edge8" vertex="1" connectable="0"><mxGeometry x="0.9004" y="-4" relative="1" as="geometry"><mxPoint x="114" y="-479" as="offset"/></mxGeometry></mxCell></root></mxGraphModel></diagram><diagram id="q2Vyo5V6yz4aFdmzzmgp" name="Page-2"><mxGraphModel dx="750" dy="528" grid="1" gridSize="10" guides="1" tooltips="1" connect="1" arrows="1" fold="1" page="1" pageScale="1" pageWidth="850" pageHeight="1100" math="0" shadow="0"><root><mxCell id="UbdtA4PXz0CjpPk4cIQZ-0"/><mxCell id="UbdtA4PXz0CjpPk4cIQZ-1" parent="UbdtA4PXz0CjpPk4cIQZ-0"/></root></mxGraphModel></diagram></mxfile>